<svg width="920" height="678" viewBox="0 0 920 678" fill="none" xmlns="http://www.w3.org/2000/svg">
<path d="M513.906 587.953L914.609 524.391V127.125L495.938 180.094L490.547 356.215L513.906 587.953Z" fill="#9C6750"/>
<path d="M5.39062 544.254L407.891 587.953L442.031 348.27L424.062 182.742L5.39062 139.043V544.254Z" fill="#9C6750"/>
<path d="M407.891 587.953H513.906L495.938 180.094L424.062 182.742L407.891 587.953Z" fill="#844F3E"/>
<path d="M869.688 537.633L920 528.363V484.664L905.625 485.988L900.234 512.473L869.688 521.742V537.633Z" fill="#F3D544"/>
<path d="M878.672 127.125L920 121.828V160.23L907.422 158.906L905.625 137.719L882.266 135.07L878.672 127.125Z" fill="#F3D544"/>
<path d="M0 170.824V133.746L46.7188 139.043L43.125 149.637L16.1719 150.961L10.7812 169.5L0 170.824Z" fill="#F3D544"/>
<path d="M460 210.551L53.9062 74.1562L41.3281 520.418L470.781 577.359L460 210.551Z" fill="#E7E2D5"/>
<path d="M460 210.551L857.109 68.8594L878.672 503.203L470.781 577.359L460 210.551Z" fill="#E7E2D5"/>
<path d="M89.8438 471.422L149.141 37.0781L460 210.551L470.781 577.359L89.8438 471.422Z" fill="#F4EFE3"/>
<path d="M264.141 0L460 210.551L470.781 577.359L154.531 417.129L264.141 0Z" fill="#FDF9F2"/>
<path d="M460 210.551L760.078 38.4023L822.969 455.531L470.781 577.359L460 210.551Z" fill="#F4EFE3"/>
<path d="M460 210.551L646.875 0L754.688 411.832L470.781 577.359L460 210.551Z" fill="#FDF9F2"/>
<path d="M452.812 199.957H467.188L477.969 678H442.031L452.812 199.957Z" fill="#D68034"/>
<path d="M280.312 74.1562L427.656 206.578L422.266 321.785L246.172 199.957L280.312 74.1562Z" fill="#E7E2D5"/>
<path d="M235.391 227.766L418.672 340.324L415.078 357.539L230 241.008L235.391 227.766Z" fill="#E7E2D5"/>
<path d="M224.609 268.816L389.922 360.188L386.328 373.43L219.219 280.734L224.609 268.816Z" fill="#E7E2D5"/>
<path d="M215.625 301.922L406.094 398.59L402.5 414.48L212.031 315.164L215.625 301.922Z" fill="#E7E2D5"/>
<path d="M206.641 336.352L413.281 436.992V458.18L201.25 349.594L206.641 336.352Z" fill="#E7E2D5"/>
<path d="M192.266 373.43L380.938 460.828L373.75 479.367L188.672 387.996L192.266 373.43Z" fill="#E7E2D5"/>
<path d="M486.953 214.523L632.5 60.9141L637.891 76.8047L490.547 233.062L486.953 214.523Z" fill="#E7E2D5"/>
<path d="M492.344 250.277L646.875 100.641L652.266 119.18L494.764 262.759L492.344 250.277Z" fill="#E7E2D5"/>
<path d="M501.328 288.68L652.266 166.852L657.656 185.391L501.328 307.219V288.68Z" fill="#E7E2D5"/>
<path d="M501.328 325.758L648.672 218.496L652.266 237.035L501.328 341.648V325.758Z" fill="#E7E2D5"/>
<path d="M693.594 423.75L724.141 405.211L711.562 381.375L688.203 394.617L693.594 423.75Z" fill="#E7E2D5"/>
<path d="M61.0938 556.172L0 548.227V492.609L19.7656 496.582L23.3594 524.391L59.2969 541.605L61.0938 556.172Z" fill="#F3D544"/>
</svg>
