<svg width="20" height="28" viewBox="0 0 20 28" fill="none" xmlns="http://www.w3.org/2000/svg">
<path d="M19.6803 12.9121L12.4576 2.80008C12.2514 2.51143 11.9766 2.353 11.6836 2.353C11.3903 2.353 11.1157 2.51166 10.9095 2.80008L10.2537 3.71838C10.0477 4.00658 9.93422 4.39152 9.93422 4.80195C9.93422 5.21216 10.0477 5.61008 10.2537 5.89827L14.4674 11.8103H1.08048C0.476906 11.8103 0 12.4718 0 13.3171V14.6153C0 15.4605 0.476906 16.1888 1.08048 16.1888H14.5152L10.2539 22.1338C10.0479 22.4225 9.93438 22.7969 9.93438 23.2074C9.93438 23.6173 10.0479 23.9973 10.2539 24.2857L10.9097 25.201C11.1158 25.4897 11.3905 25.647 11.6838 25.647C11.9768 25.647 12.2516 25.4876 12.4578 25.199L19.6805 15.0872C19.8871 14.7976 20.0008 14.4111 20 14.0002C20.0006 13.588 19.8871 13.2012 19.6803 12.9121Z" fill="#EE9A38"/>
</svg>
