<svg width="324" height="360" fill="none" xmlns="http://www.w3.org/2000/svg"><path d="M213.263 346.702V42.917c0-7.345-5.358-13.298-11.969-13.298H34.144c-6.611 0-11.97 5.954-11.97 13.298v303.785c0 7.345 5.36 13.298 11.97 13.298h167.151c6.61 0 11.968-5.954 11.968-13.298Z" fill="#FFC250"/><path d="M240.537 29.618H200.48c6.611 0 11.969 5.954 11.969 13.299V346.7c0 7.345-5.358 13.298-11.969 13.298h40.057c6.61 0 11.969-5.954 11.969-13.298V42.917c0-7.345-5.359-13.299-11.969-13.299Z" fill="#EAB14D"/><path d="M41.737 333.51V56.108c0-2.625 1.916-4.753 4.278-4.753h182.65c2.363 0 4.278 2.128 4.278 4.753V333.51c0 2.626-1.916 4.754-4.278 4.754H46.015c-2.363 0-4.278-2.128-4.278-4.754Z" fill="#F5F5F5"/><path d="M228.665 51.355h-40.057c2.363 0 4.278 2.128 4.278 4.753V333.51c0 2.626-1.915 4.754-4.278 4.754h40.057c2.363 0 4.278-2.129 4.278-4.754V56.108c0-2.625-1.915-4.753-4.278-4.753Z" fill="#EAEAEA"/><path d="M162.766 16.55v-7c0-5.274-3.848-9.55-8.595-9.55h-33.663c-4.747 0-8.594 4.276-8.594 9.55v7c0 2.157-1.574 3.905-3.515 3.905h-14.01c-4.661 0-8.44 4.199-8.44 9.377v21.523H188.73V29.832c0-5.178-3.779-9.377-8.439-9.377H166.28c-1.941 0-3.514-1.748-3.514-3.905Z" fill="#C2D0DA"/><path d="M66.621 128.526V86.663c0-4.638 3.384-8.398 7.558-8.398h37.677c4.174 0 7.558 3.76 7.558 8.398v41.863c0 4.637-3.384 8.398-7.558 8.398H74.179c-4.174 0-7.558-3.761-7.558-8.398ZM66.621 215.741v-41.862c0-4.638 3.384-8.399 7.558-8.399h37.677c4.174 0 7.558 3.761 7.558 8.399v41.862c0 4.638-3.384 8.398-7.558 8.398H74.179c-4.174 0-7.558-3.76-7.558-8.398ZM66.621 302.956v-41.863c0-4.637 3.384-8.398 7.558-8.398h37.677c4.174 0 7.558 3.761 7.558 8.398v41.863c0 4.638-3.384 8.398-7.558 8.398H74.179c-4.174 0-7.558-3.759-7.558-8.398Z" fill="#66B49D"/><path d="M89.828 122.586h-.016c-2.159-.006-4.206-1.168-5.477-3.106l-5.71-8.712c-1.589-2.426-1.108-5.824 1.075-7.59s5.242-1.231 6.83 1.194l3.311 5.052 9.679-14.611c1.601-2.417 4.661-2.933 6.836-1.155 2.175 1.779 2.64 5.18 1.039 7.596L95.3 119.511c-1.275 1.926-3.32 3.075-5.472 3.075ZM89.828 211.699h-.018c-2.158-.006-4.206-1.167-5.476-3.107l-5.708-8.71c-1.59-2.426-1.109-5.824 1.074-7.591 2.183-1.765 5.242-1.231 6.83 1.194l3.311 5.052 9.679-14.611c1.601-2.416 4.661-2.933 6.836-1.154 2.175 1.778 2.64 5.179 1.039 7.596L95.3 208.624c-1.275 1.927-3.32 3.075-5.472 3.075ZM89.828 297.018l-.017-.001c-2.158-.006-4.206-1.167-5.476-3.104l-5.71-8.714c-1.59-2.425-1.108-5.823 1.076-7.589s5.241-1.231 6.83 1.195l3.31 5.051 9.68-14.611c1.6-2.416 4.661-2.933 6.835-1.155 2.175 1.779 2.64 5.18 1.039 7.596l-12.094 18.257c-1.277 1.926-3.321 3.075-5.473 3.075Z" fill="#F6F9F9"/><path d="M204.203 101.675H143.76c-2.7 0-4.889-2.432-4.889-5.432 0-3 2.189-5.432 4.889-5.432h60.443c2.7 0 4.889 2.432 4.889 5.432 0 3-2.189 5.432-4.889 5.432ZM173.982 124.377h-30.221c-2.7 0-4.889-2.432-4.889-5.432 0-3 2.189-5.432 4.889-5.432h30.221c2.701 0 4.89 2.432 4.89 5.432 0 3-2.189 5.432-4.89 5.432ZM184.316 188.891h-40.555c-2.7 0-4.889-2.432-4.889-5.432 0-3.001 2.189-5.433 4.889-5.433h40.555c2.7 0 4.889 2.432 4.889 5.433 0 3-2.189 5.432-4.889 5.432ZM173.982 211.593h-30.221c-2.7 0-4.889-2.432-4.889-5.433 0-3 2.189-5.432 4.889-5.432h30.221c2.701 0 4.89 2.432 4.89 5.432 0 3.001-2.189 5.433-4.89 5.433Z" fill="#DDEAFB"/><path d="m282.81 141.833-4.801-7.027-17.962-12.639-6.905-1.208-91.976 161.488a44.69 44.69 0 0 0-4.819 12.648c11.19.154 21.348 7.3 26.258 18.475 3.229-2.892 6.009-6.354 8.229-10.248l91.976-161.489Z" fill="#FC8086"/><path d="m295.795 92.104-7.762-5.461c-6.05-4.258-14.062-2.257-17.891 4.466l-7.118 12.497 2.271 5.086 21.598 15.197 5.8.592 7.121-12.505c3.827-6.72 2.028-15.617-4.019-19.872Z" fill="#8C9BA6"/><path d="m253.153 120.912 9.888-17.352 29.673 20.875-9.888 17.352-29.673-20.875Z" fill="#C9E2E7"/><path d="m182.605 313.571-26.189 23.449c-3.694 3.308-9.062-.469-7.95-5.594l7.881-36.331c11.191.153 21.349 7.301 26.258 18.476Z" fill="#7C8B96"/><path d="m175.736 303.503 96.415-169.17-8.262-5.813-96.414 169.17c3.024 1.417 5.815 3.38 8.261 5.813Z" fill="#FB636F"/></svg>