<svg width="1920" height="1080" viewBox="0 0 1920 1080" fill="none" xmlns="http://www.w3.org/2000/svg">
<rect width="1920" height="1080" fill="white"/>
<path d="M0 0H960L846 32L673 78L579 243L279.5 169L0 357V0Z" fill="#3DB2FF" fill-opacity="0.2"/>
<path d="M0 855L515.5 964.5L856 1020.5L1087 918.5L1300.5 964.5V1080H1179H0V855Z" fill="#3DB2FF" fill-opacity="0.2"/>
<path d="M1492 791L1797 687L1736 864.5L1492 1002V791Z" fill="#3DB2FF" fill-opacity="0.2"/>
<path d="M1394.5 105.5L1920 0V687L1674 583.5L1486 606V365L1394.5 105.5Z" fill="#3DB2FF" fill-opacity="0.2"/>
<path d="M126.486 350.648L309.23 233.541L654.121 475.902L884.928 183.134L1216.61 51L1402 405.886L1362.92 879.406L1090.91 797.94L866.442 968L108 837.407L126.486 350.648Z" fill="#EE9A38" fill-opacity="0.2"/>
<path d="M1785.5 974L1918 779V1080H1460L1785.5 974Z" fill="#EE9A38" fill-opacity="0.2"/>
</svg>
