<svg width="512" height="512" fill="none" xmlns="http://www.w3.org/2000/svg"><g clip-path="url(#a)"><path d="M512 335.448v70.621H326.621a264.34 264.34 0 0 1 10.946-35.31h19.42c10.655 0 19.421-15.89 19.421-35.311H512Z" fill="#C03A2B"/><path d="M512 326.621v26.482H388.414v-35.31h114.758a8.827 8.827 0 0 1 8.828 8.828Z" fill="#393F4A"/><path d="M414.896 35.31h61.794v105.932h-61.794V35.311Z" fill="#F5EFCA"/><path d="M370.759 35.31h52.965v105.932h-52.965V35.311Z" fill="#285680"/><path d="M512 44.138v88.276a8.828 8.828 0 0 1-8.827 8.828h-35.311V35.311h35.311A8.827 8.827 0 0 1 512 44.137Z" fill="#C03A2B"/><path d="M370.759 176.552h132.414a8.827 8.827 0 0 1 8.827 8.827v88.276a8.827 8.827 0 0 1-8.827 8.828H370.759V176.552Z" fill="#F5EFCA"/><path d="M450.207 247.173c9.751 0 17.655-7.905 17.655-17.656 0-9.75-7.904-17.655-17.655-17.655-9.751 0-17.655 7.905-17.655 17.655 0 9.751 7.904 17.656 17.655 17.656ZM44.138.794l35.31 370.759a51.481 51.481 0 0 0-28.601 14.742C41.225 395.829 0 409.07 0 423.724V52.966C-.01 27.126 18.655 5.065 44.138.794Z" fill="#C03A2B"/><path d="M388.414 423.724v26.483c-.044 14.608-11.875 26.439-26.483 26.483h-8.827c-1.413-1.942-25.247-12.8-26.483-14.831a104.555 104.555 0 0 1-7.327-14.742 85.527 85.527 0 0 1-6.356-32.221l75.476 8.828Z" fill="#B19046"/><path d="M388.414 17.655v335.449c0 9.71-7.945 26.482-17.656 26.482l-317.793-.794a45.27 45.27 0 0 0-8.739.794h-.088V.795C47.05.26 50.005-.006 52.965 0h317.793c9.739.03 17.626 7.917 17.656 17.655Z" fill="#F0C419"/><path d="M353.104 473.38c-313.115 0-295.786.273-301.021-.495-25.677-1.024-46.245-21.627-47.225-47.306-.98-25.679 17.958-47.79 43.482-50.768 34.383 0-118.466-.742 304.781-.742-23.214 29.032-23.221 70.271-.017 99.311Z" fill="#F5EFCA"/><path d="M194.207 432.552H44.138a8.828 8.828 0 0 1 0-17.656h150.069a8.829 8.829 0 0 1 0 17.656Z" fill="#CBB292"/><path d="M326.091 200.828a119.75 119.75 0 0 1-41.313 51.2v-.089a111.402 111.402 0 0 0-26.924-5.473 117.896 117.896 0 0 0-36.635 2.384 85.805 85.805 0 0 0-36.723 20.48 118.629 118.629 0 0 1-31.691-13.948v-.088a111.127 111.127 0 0 0 4.149-17.832 104.754 104.754 0 0 0-2.383-26.218c-2.03-18.185 10.505-32.309 12.005-49.876a14.343 14.343 0 0 0-9.269-15.095c-8.739-3.796-18.714-3.972-27.365-7.503a41.367 41.367 0 0 1-22.952-31.868 118.515 118.515 0 0 1 20.48-31.868 218.552 218.552 0 0 0 54.025-6.179 58.43 58.43 0 0 0 42.637-33.28 118.729 118.729 0 0 1 45.021 12.094v.088l-.088.089a91.673 91.673 0 0 1-36.811 26.218 37.808 37.808 0 0 0-22.334 24.628c-2.913 16.155 12.623 25.954 26.218 28.955 16.154 3.619 30.632 12.623 30.72 30.808a64.613 64.613 0 0 1-4.944 22.246 85.516 85.516 0 0 0-7.856 26.482 16.95 16.95 0 0 0 21.098 16.861 49.374 49.374 0 0 0 20.568-8.563c.706-.441 1.412-.882 2.119-1.412a83.587 83.587 0 0 1 28.248-13.241Z" fill="#2FA8CC"/><path d="M154.571 211.244a104.762 104.762 0 0 1 2.383 26.218 111.127 111.127 0 0 1-4.149 17.832v.088c-49.834-31.395-69.294-94.463-45.815-148.48a41.365 41.365 0 0 0 22.952 31.868c8.651 3.531 18.626 3.708 27.365 7.503a14.345 14.345 0 0 1 9.269 15.096c-1.5 17.566-14.035 31.691-12.005 49.875Z" fill="#4FBA6F"/><path d="M224.132 35.575a58.43 58.43 0 0 1-42.637 33.28 218.553 218.553 0 0 1-54.025 6.18 118.839 118.839 0 0 1 88.806-39.724c2.648 0 5.208.088 7.856.264ZM284.778 251.939v.089a119.171 119.171 0 0 1-100.281 17.302 85.796 85.796 0 0 1 36.722-20.48 117.896 117.896 0 0 1 36.635-2.384c9.166.706 18.21 2.545 26.924 5.473Z" fill="#B0D3F0"/><path d="M335.448 154.483a119.372 119.372 0 0 1-9.357 46.345 83.586 83.586 0 0 0-28.248 13.241c-.706.53-1.412.971-2.119 1.412a49.374 49.374 0 0 1-20.568 8.563 16.95 16.95 0 0 1-21.098-16.861 85.518 85.518 0 0 1 7.857-26.482 64.634 64.634 0 0 0 4.943-22.246c-.088-18.185-14.565-27.189-30.72-30.808-13.594-3.002-29.131-12.8-26.218-28.955a37.81 37.81 0 0 1 22.334-24.629 91.672 91.672 0 0 0 36.811-26.218l.088-.088v-.088c40.608 20.105 66.301 61.501 66.295 106.814Z" fill="#4FBA6F"/><path d="M291.31 317.793H141.241a8.827 8.827 0 0 1-8.827-8.827 8.827 8.827 0 0 1 8.827-8.828H291.31a8.828 8.828 0 0 1 0 17.655Z" fill="#F29C1F"/><path d="M47.228 388.944c3.972-.795-16.932-.53 314.703-.53 14.608-.044 26.439-11.875 26.483-26.483v-8.827c-.029 9.738-7.917 17.626-17.655 17.655H52.966a52.436 52.436 0 0 0-38.135 88.805A56.363 56.363 0 0 0 54.29 476.69H361.93c14.608-.044 26.439-11.875 26.483-26.483v-26.483a8.827 8.827 0 0 0-8.828-8.827 8.827 8.827 0 0 0-8.827 8.827v26.483a8.829 8.829 0 0 1-8.828 8.828H55.084A36.925 36.925 0 0 1 17.655 422.4c.64-16.769 13.01-30.763 29.573-33.456Zm300.817 79.801a42.631 42.631 0 0 1-.971-1.766c.327.592.627 1.174.971 1.766Z" fill="#E64C3C"/><path d="m137.295 511.056-18.59-9.296a8.83 8.83 0 0 0-7.892 0l-18.591 9.296a8.83 8.83 0 0 1-12.774-7.883v-79.448h70.621v79.448a8.828 8.828 0 0 1-12.774 7.883Z" fill="#C03A2B"/><path d="M512 388.414v26.483a8.827 8.827 0 0 1-8.828 8.827H335.448a84.946 84.946 0 0 1 7.68-35.31H512Z" fill="#F0C419"/></g><defs><clipPath id="a"><path fill="#fff" d="M0 0h512v512H0z"/></clipPath></defs></svg>