<svg width="32" height="32" viewBox="0 0 32 32" fill="none" xmlns="http://www.w3.org/2000/svg">
<path d="M21.2119 16.164L31.9999 22.984V9.056L21.2119 16.164Z" fill="#3DB2FF"/>
<path d="M0 9.056V22.984L10.788 16.164L0 9.056Z" fill="#3DB2FF"/>
<path d="M30.0001 5H2.00006C1.00206 5 0.210059 5.744 0.0600586 6.702L16.0001 17.204L31.9401 6.702C31.7901 5.744 30.9981 5 30.0001 5Z" fill="#3DB2FF"/>
<path d="M19.38 17.372L16.55 19.236C16.382 19.346 16.192 19.4 16 19.4C15.808 19.4 15.618 19.346 15.45 19.236L12.62 17.37L0.0639648 25.312C0.217965 26.262 1.00596 27 1.99996 27H30C30.994 27 31.782 26.262 31.936 25.312L19.38 17.372Z" fill="#3DB2FF"/>
</svg>
