<svg width="75" height="75" viewBox="0 0 75 75" fill="none" xmlns="http://www.w3.org/2000/svg">
<g clip-path="url(#clip0)">
<path d="M70.8601 1.32542e-07H4.13647C1.85165 0.00114454 -0.000572072 1.85451 1.32542e-07 4.1399V70.8635C0.00114454 73.1483 1.85451 75.0006 4.1399 75H70.8601C73.1461 75.0006 74.9994 73.1478 75 70.8618C75 70.8612 75 70.8607 75 70.8601V4.13647C74.9989 1.85165 73.1455 -0.000572072 70.8601 1.32542e-07Z" fill="#FFEDDA"/>
<path d="M51.7822 74.9999V45.996H61.5601L63.0249 34.6434H51.7822V27.413C51.7822 24.1337 52.6926 21.8993 57.395 21.8993H63.3545V11.773C62.3177 11.6351 58.7603 11.3267 54.6209 11.3267C45.9784 11.3267 40.0635 16.6001 40.0635 26.2887V34.6434H30.3223V45.996H40.0635V74.9999H51.7822Z" fill="#EE9A38"/>
</g>
<defs>
<clipPath id="clip0">
<rect width="75" height="75" fill="white"/>
</clipPath>
</defs>
</svg>
