<svg width="300" height="300" fill="none" xmlns="http://www.w3.org/2000/svg"><g clip-path="url(#a)"><path d="M295.211 20.386H278.34C269.421 3.822 250.327 0 235.617 0h-53.035c-5.981 0-11.061 4.895-10.949 10.875.109 5.8 4.844 10.467 10.669 10.467h18.526l-.025.318h-32.237c-5.981 0-11.06 4.895-10.948 10.875.109 5.8 4.843 10.467 10.669 10.467h30.815l-.076.956h-37.467c-5.981 0-11.061 4.894-10.949 10.874.109 5.8 4.844 10.467 10.67 10.467h36.044l-.076.956h-93.025c-5.981 0-11.061 4.895-10.949 10.875.109 5.799 4.844 10.466 10.669 10.466l109.812.32c9.512 0 17.446 6.795 19.194 15.815v24.677c0 5.981 4.895 11.061 10.875 10.948 5.8-.108 10.468-4.843 10.468-10.669v-27.831c0-1.37.568-2.677 1.569-3.61.838-.783 1.926-1.23 3.069-1.317 11.811-.883 21.119-10.745 21.119-22.782h15.163a4.789 4.789 0 0 0 4.789-4.79V25.176a4.79 4.79 0 0 0-4.79-4.789Z" fill="#FFD4A1"/><path d="M295.211 20.386h-16.872C269.42 3.822 250.327 0 235.616 0h-19.919c14.71 0 33.804 3.822 42.723 20.386l1.708 52.76c0 12.038-9.308 21.9-21.119 22.783-1.144.086-2.231.533-3.069 1.316a4.938 4.938 0 0 0-1.57 3.611v27.831c0 1.298-.242 2.537-.667 3.687 1.589 4.092 5.53 7.069 10.12 6.982 5.8-.108 10.468-4.843 10.468-10.669v-27.831c0-1.37.568-2.677 1.569-3.61.839-.783 1.926-1.23 3.069-1.317 11.811-.883 21.119-10.745 21.119-22.782h15.163a4.789 4.789 0 0 0 4.789-4.79V25.176a4.789 4.789 0 0 0-4.789-4.789Z" fill="#FFC183"/><path d="M4.61 279.614h17.05C30.58 296.178 49.673 300 64.384 300h53.034c5.982 0 11.061-4.895 10.949-10.875-.109-5.799-4.844-10.467-10.669-10.467H99.172l.025-.318h32.236c5.981 0 11.061-4.895 10.949-10.875-.109-5.8-4.844-10.467-10.669-10.467h-30.815l.076-.956h37.467c5.981 0 11.06-4.894 10.948-10.874-.109-5.8-4.843-10.467-10.669-10.467h-36.044l.076-.956h93.025c5.982 0 11.061-4.894 10.949-10.875-.109-5.799-4.844-10.466-10.669-10.466l-109.811-.319c-9.512 0-17.446-6.796-19.195-15.816v-24.677c0-5.981-4.895-11.061-10.875-10.948-5.8.108-10.467 4.843-10.467 10.669v27.831a4.938 4.938 0 0 1-1.57 3.611c-.839.782-1.925 1.23-3.07 1.316-11.81.883-21.118 10.745-21.118 22.782H4.61a4.61 4.61 0 0 0-4.61 4.61v43.541a4.61 4.61 0 0 0 4.61 4.61Z" fill="#FFD4A1"/><path d="M117.699 278.658H99.173s9.166 4.668 9.275 10.467C108.56 295.105 103.481 300 97.5 300h19.919c5.981 0 11.061-4.895 10.949-10.875-.109-5.799-4.845-10.467-10.669-10.467ZM176.138 212.403c5.826 0 10.561 4.668 10.669 10.467.113 5.98-4.967 10.875-10.948 10.875h19.919c5.982 0 11.061-4.895 10.949-10.875-.109-5.8-4.844-10.467-10.669-10.467M138.721 234.701h-19.919c5.825 0 10.56 4.668 10.669 10.467.112 5.98-4.967 10.875-10.949 10.875h19.92c5.981 0 11.061-4.895 10.948-10.875-.108-5.799-4.843-10.467-10.669-10.467ZM131.714 256.998h-19.919c5.825 0 10.56 4.668 10.669 10.467.112 5.98-4.968 10.874-10.949 10.875h19.919c5.981 0 11.061-4.895 10.949-10.875-.109-5.799-4.844-10.467-10.669-10.467Z" fill="#FFC183"/><path d="M150 177.704c-15.276 0-27.704-12.428-27.704-27.704s12.428-27.704 27.704-27.704 27.704 12.428 27.704 27.704-12.427 27.704-27.704 27.704Zm0-46.354c-10.283 0-18.649 8.367-18.649 18.65 0 10.283 8.366 18.649 18.649 18.649 10.283 0 18.65-8.366 18.65-18.649 0-10.283-8.367-18.65-18.65-18.65Z" fill="#D63BE7"/><path d="M149.807 141.007a4.527 4.527 0 0 1-4.527-4.527v-19.627a4.527 4.527 0 1 1 9.054 0v19.627c0 2.5-2.027 4.527-4.527 4.527ZM150.193 187.674a4.527 4.527 0 0 1-4.527-4.527V163.52a4.527 4.527 0 1 1 9.054 0v19.627c0 2.5-2.026 4.527-4.527 4.527ZM181.865 154.346h-17.983a4.527 4.527 0 1 1 0-9.054h17.983a4.527 4.527 0 1 1 0 9.054ZM136.118 154.708h-17.983a4.527 4.527 0 1 1 0-9.054h17.983a4.527 4.527 0 1 1 0 9.054Z" fill="#FDD277"/><path d="M55.59 147.529a4.527 4.527 0 0 1-4.528-4.527V76.716c0-2.5 2.026-4.527 4.527-4.527h19.807a4.527 4.527 0 1 1 0 9.054h-15.28v61.759c0 2.5-2.027 4.527-4.527 4.527ZM244.411 228.415h-19.807a4.527 4.527 0 1 1 0-9.055h15.28v-61.759a4.527 4.527 0 1 1 9.054 0v66.286a4.527 4.527 0 0 1-4.527 4.528Z" fill="#7D2BE6"/></g><defs><clipPath id="a"><path fill="#fff" d="M0 0h300v300H0z"/></clipPath></defs></svg>