<svg width="512" height="512" fill="none" xmlns="http://www.w3.org/2000/svg"><g clip-path="url(#a)"><path d="m.26 198.818 5.58 34.068c7.69 46.951 40.116 86.099 84.813 102.399l43.404 15.828c13.222 4.822 26.683-6.535 24.157-20.38l-8.422-46.162a73.781 73.781 0 0 0-49.416-56.807 160.589 160.589 0 0 1-60.272-36.125l-9.381-8.925C18.098 170.704-2.555 181.623.26 198.818Z" fill="#EE9A38"/><path d="m40.103 191.639-9.381-8.925C18.098 170.704-2.556 181.623.26 198.818l5.58 34.068a131.76 131.76 0 0 0 3.662 15.97c20.987-3.961 42.174-14.014 57.322-36.693a160.593 160.593 0 0 1-26.722-20.524Z" fill="#3DB2FF"/><path opacity=".05" d="m158.212 330.732-7.523-41.235c-24.926 5.841-44.96 24.347-52.95 48.371l36.316 13.244c13.222 4.823 26.684-6.535 24.157-20.38Z" fill="#000"/><path d="M310.397 374.332h-41.741v48.827h41.741v-48.827Z" fill="#F4B759"/><path d="M313.684 423.163H268.66v20.115c0 6.072 4.922 10.994 10.994 10.994h48.336a8.402 8.402 0 0 0 8.402-8.402c-.001-12.541-10.168-22.707-22.708-22.707Z" fill="#4A5058"/><path opacity=".15" d="M313.684 423.163h-3.283v-48.829H268.66v68.944c0 6.072 4.922 10.994 10.994 10.994h48.336a8.402 8.402 0 0 0 8.402-8.402c-.001-12.541-10.168-22.707-22.708-22.707Z" fill="#000"/><path d="M184.461 288.721c-40.623 0-73.553 32.931-73.553 73.553v60.89h41.741v-32.053h50.068v32.053h41.741v-32.053h20.569c41.079 0 74.378-33.301 74.378-74.378v-28.011H184.461v-.001Z" fill="#EE9A38"/><path opacity=".05" d="M190 288.721c25.993 42.878 77.122 76.181 120.232 87.061 17.731-13.594 29.174-34.981 29.174-59.05v-28.011H190Z" fill="#000"/><path d="m318.068 133.466-118.626 56.627-1.884-16.37a369.484 369.484 0 0 1 2.21-100.583c2.021-12.636 16.064-19.341 27.16-12.965a369.465 369.465 0 0 1 79.596 61.532l11.544 11.759Z" fill="#4A5058"/><path d="M287.89 143.132c-14.672-16.294-31.087-30.552-48.786-42.38-6.723-4.492-14.708-.68-15.442 7.371-1.935 21.2-1.17 42.929 2.273 64.582l.7 4.406 64.241-30.666-2.986-3.313Z" fill="#EDBCB9"/><path d="m376.83 133.466 118.626 56.627 1.884-16.37a369.564 369.564 0 0 0-2.209-100.583c-2.021-12.636-16.064-19.341-27.16-12.965a369.465 369.465 0 0 0-79.596 61.532l-11.545 11.759Z" fill="#4A5058"/><path d="M407.008 143.132c14.672-16.294 31.086-30.552 48.786-42.38 6.723-4.492 14.708-.68 15.442 7.371 1.935 21.2 1.171 42.929-2.272 64.582l-.702 4.406-64.241-30.666 2.987-3.313Z" fill="#EDBCB9"/><path d="M347.451 124.075c92.307 0 177.134 44.901 163.002 112.266C495.628 307 404.024 363.993 347.451 363.993c-56.573 0-148.178-56.993-163.002-127.652-14.133-67.365 70.693-112.266 163.002-112.266Z" fill="#EE9A38"/><path d="M347.451 298.437c-50.003 0-123.548-17.74-163.476-64.621.146.839.297 1.679.475 2.525C199.273 307 290.877 363.993 347.451 363.993S495.628 307 510.452 236.341c.178-.846.329-1.687.475-2.525-39.928 46.881-113.474 64.621-163.476 64.621Z" fill="#E8E8E8"/><path d="M276.406 257.384a8.238 8.238 0 0 1-8.24-8.24v-12.272a8.238 8.238 0 0 1 8.24-8.24 8.24 8.24 0 0 1 8.24 8.24v12.272a8.24 8.24 0 0 1-8.24 8.24ZM418.49 257.384a8.24 8.24 0 0 1-8.24-8.24v-12.272a8.24 8.24 0 0 1 8.24-8.24 8.238 8.238 0 0 1 8.24 8.24v12.272a8.24 8.24 0 0 1-8.24 8.24ZM375.975 311.446a8.238 8.238 0 0 0-8.24 8.24 6.03 6.03 0 0 1-6.023 6.023 6.03 6.03 0 0 1-6.023-6.023v-20.55h-16.481v20.55a6.03 6.03 0 0 1-6.024 6.023 6.03 6.03 0 0 1-6.022-6.023 8.238 8.238 0 0 0-8.24-8.24 8.238 8.238 0 0 0-8.24 8.24c0 12.409 10.095 22.504 22.503 22.504a22.407 22.407 0 0 0 14.265-5.11 22.399 22.399 0 0 0 14.263 5.11c12.409 0 22.504-10.095 22.504-22.504a8.24 8.24 0 0 0-8.242-8.24Z" fill="#4A5058"/><path d="m374.803 284.528-6.367 7.582c-10.952 13.043-31.022 13.043-41.973 0l-6.367-7.582c-3.281-3.907-.503-9.865 4.598-9.865h45.51c5.102 0 7.88 5.958 4.599 9.865ZM155.932 423.163h-45.024v20.115c0 6.072 4.922 10.994 10.994 10.994h48.336a8.402 8.402 0 0 0 8.402-8.402c-.001-12.541-10.168-22.707-22.708-22.707ZM247.741 423.163h-45.024v20.115c0 6.072 4.922 10.994 10.994 10.994h48.336a8.402 8.402 0 0 0 8.402-8.402c0-12.541-10.166-22.707-22.708-22.707Z" fill="#4A5058"/></g><defs><clipPath id="a"><path fill="#fff" d="M0 0h512.001v512.001H0z"/></clipPath></defs></svg>