<svg width="300" height="300" fill="none" xmlns="http://www.w3.org/2000/svg"><g clip-path="url(#a)"><path d="M300 212.069c0 28.552-4.655 51.724-10.345 51.724a798.329 798.329 0 0 0-104.896-9.724l-12.828-6.103c7.148-12.694 4.477-28.653-6.414-38.328-.155-17.172 7.862-31.862 4.604-39.155a831.647 831.647 0 0 0 119.534-10.138c5.69 0 10.345 23.172 10.345 51.724Z" fill="#F8E8AB"/><path d="M77.586 88.241 3.466 61.76a5.172 5.172 0 0 1 0-9.725L148.188.31a5.437 5.437 0 0 1 3.621 0l144.724 51.724a5.172 5.172 0 0 1 0 9.725l-33.103 11.844-14.328 5.121-26.689 9.517H77.586Z" fill="#393F4B"/><path d="m11.069 263.638-.724.155c.25.004.497-.049.724-.155ZM10.965 160.448a5.92 5.92 0 0 1-.62-.103c.21.009.418.044.62.103ZM11.017 160.448a822.5 822.5 0 0 0 112.5 9.88c3.414 7.551 16.138 23.431 16.138 41.741 0 1.241 0 2.431-.052 3.621a31.036 31.036 0 0 0-1.138 32.276l-12.775 5.793a840.31 840.31 0 0 0-114.621 9.879l-.052-103.19Z" fill="#F8E8AB"/><path d="M129.258 215.69c.052-1.19.052-2.38.052-3.621a118.75 118.75 0 0 0-5.793-41.741c8.483.258 17.328.362 26.483.362 6.879 0 13.603-.052 20.121-.207a113.447 113.447 0 0 1 5.689 39.155l-46.552 6.052ZM155.173 263.793l-13.759 32.948a5.172 5.172 0 0 1-9.569.155l-3.776-8.689-8.69 3.724a5.136 5.136 0 0 1-6.827-6.621l13.138-31.551 2.431-5.794 27.052 15.828Z" fill="#BA3A23"/><path d="m182.224 247.965 2.535 6.104 13.034 31.241a5.135 5.135 0 0 1-6.828 6.621l-8.689-3.724-3.776 8.689a5.173 5.173 0 0 1-9.569-.155l-13.759-32.948 27.052-15.828Z" fill="#BA3A23"/><path d="M77.586 124.138V67.241c0-8.586 32.431-15.517 72.414-15.517 39.983 0 72.414 6.931 72.414 15.517v56.897H77.586Z" fill="#464F5E"/><path d="M258.621 77.586a5.173 5.173 0 0 1-5.172-5.172V38.483a5.172 5.172 0 0 1 10.345 0v33.93a5.173 5.173 0 0 1-5.173 5.173Z" fill="#EDC100"/><path d="M248.276 82.759v15.517a5.172 5.172 0 0 0 5.172 5.172h10.345a5.172 5.172 0 0 0 5.173-5.172V82.759c0-5.714-4.632-10.345-10.345-10.345-5.714 0-10.345 4.631-10.345 10.345Z" fill="#F1D24B"/><path d="M150 139.655c39.993 0 72.414-6.947 72.414-15.517S189.993 108.621 150 108.621s-72.414 6.947-72.414 15.517 32.421 15.517 72.414 15.517Z" fill="#393F4B"/><path d="M20.69 212.069c0 27.31-4.242 49.707-9.621 51.569a1.647 1.647 0 0 1-.724.155C4.655 263.793 0 240.621 0 212.069c0-28.552 4.655-51.724 10.345-51.724a.19.19 0 0 1 .155.052c.104 0 .259.051.466.051h.051c5.38 1.811 9.673 24.207 9.673 51.621Z" fill="#E2BE50"/><path d="M186.207 232.759c0 17.14-13.894 31.034-31.034 31.034s-31.035-13.894-31.035-31.034 13.895-31.035 31.035-31.035a30.402 30.402 0 0 1 20.638 7.914 30.832 30.832 0 0 1 10.396 23.121Z" fill="#E04C34"/></g><defs><clipPath id="a"><path fill="#fff" d="M0 0h300v300H0z"/></clipPath></defs></svg>