<svg width="300" height="300" fill="none" xmlns="http://www.w3.org/2000/svg"><g clip-path="url(#a)" fill="#3DB2FF"><path d="M7.359 186.955a36.087 36.087 0 0 0 5.19 3c2.16 1.105 5.785 2.955 6.04 4.25a8.69 8.69 0 0 1-.59 5.065c-.745 1.6-1.525 2.975-2.2 4.16-1.83 3.235-4.895 8.655-.275 12.43 1.08 1 2.945 2.445 4.645 3.75a12.596 12.596 0 0 0-1.625 7.215 7.219 7.219 0 0 0 2.965 4.92c1.11.78 2.295 1.46 3.46 2.125 2.96 1.68 4.115 2.465 4.5 4.035a13.775 13.775 0 0 1-.5 6c-.295 1.335-.58 2.675-.75 4a29.755 29.755 0 0 0 1.645 13.47A18.73 18.73 0 0 0 47.554 275a20.105 20.105 0 0 0 4.1-.435 379.406 379.406 0 0 0 42.155-12.615c11.265 6.61 18.38 26.71 20.235 34.255a5 5 0 0 0 4.855 3.795l125.5-.35a5 5 0 0 0 4.76-6.5 38.57 38.57 0 0 0-5.065-9.5 46.632 46.632 0 0 1-3.235-5.41 94.08 94.08 0 0 1-5.645-14.23 167.797 167.797 0 0 1-5.915-29.57 84.432 84.432 0 0 1 3.25-34.44h12.45c8.284 0 15-6.716 15-15v-65a5 5 0 0 0-5-5h-20.18c.117-.828.178-1.664.18-2.5 0-9.665-7.835-17.5-17.5-17.5s-17.5 7.835-17.5 17.5c.002.836.062 1.672.18 2.5h-15.18V99.825c2.763.393 5.579.128 8.22-.775a17.365 17.365 0 0 0 11.335-12.59 17.501 17.501 0 0 0-19.555-21.28V45a5 5 0 0 0-5-5h-65c-8.284 0-15 6.716-15 15v130c0 8.284 6.716 15 15 15h107.05a94.57 94.57 0 0 0-2.665 35.65 178.186 178.186 0 0 0 6.29 31.35 104.724 104.724 0 0 0 6.205 15.65 55.44 55.44 0 0 0 3.875 6.535l.335.5-113.41.315a79.653 79.653 0 0 0-17.6-31.93l4.5-1.575c3.35-1.17 5.875-2.05 7.17-2.465 21.42-6.775 32.13-16.53 31.84-29a5.002 5.002 0 0 0-10 .235c.12 5.145-4.095 12.65-24.88 19.225-1.355.435-3.965 1.345-7.43 2.555-3.715 1.3-8.44 2.95-13.65 4.72h-.035a389.134 389.134 0 0 1-43 13 8.846 8.846 0 0 1-10.26-6.665 19.88 19.88 0 0 1-1.175-8.92c.13-1.05.37-2.09.6-3.135a21.884 21.884 0 0 0 .435-10.64 16.585 16.585 0 0 0-9.26-10.23l-1.035-.59a18.743 18.743 0 0 1 1.925-3.09 5 5 0 0 0-.955-7.12c-1.2-.88-4.03-3-6.1-4.67.24-.435.5-.915.75-1.35.785-1.375 1.68-2.975 2.555-4.825a18.744 18.744 0 0 0 1.335-11.19c-1.2-6.1-7.045-9.09-11.305-11.27a29.048 29.048 0 0 1-4.125-2.395 21.708 21.708 0 0 1-2.98-2.425c0-.76.815-2.6 4.625-7.235a201.854 201.854 0 0 0 22.9-37.18 14.876 14.876 0 0 0 1.925-6.755 17.5 17.5 0 0 0-7.305-12.5c-2-1.855-3.925-3.605-4.15-5.235a9.002 9.002 0 0 1 .78-3.42c.815-2.145 1.755-4.245 2.7-6.35a73.038 73.038 0 0 0 4.89-13.185l.5-2.13a125.008 125.008 0 0 1 4.075-14.76 85.745 85.745 0 0 1 17.94-29.305c9.565-10.12 24.62-17.28 44.82-21.295a324.43 324.43 0 0 1 46.895-6.755 107.57 107.57 0 0 1 64.405 17.515v4.84a5 5 0 0 0 8 4 7.71 7.71 0 0 1 10.335 1.325 7.542 7.542 0 0 1 1.445 6.465 7.415 7.415 0 0 1-4.78 5.285 7.55 7.55 0 0 1-7.03-1.075 5 5 0 0 0-7.97 4V75c0 5.523 4.477 10 10 10h22.5a5 5 0 0 0 4-8 7.5 7.5 0 0 1 11.047-10.048A7.5 7.5 0 0 1 263.499 77a5 5 0 0 0 4 8h27.5a5 5 0 0 0 5-5V15c0-8.284-6.716-15-15-15h-65a5 5 0 0 0-5 5v10.685a118.44 118.44 0 0 0-64.91-15.53 333.703 333.703 0 0 0-48.365 6.94c-22.545 4.5-38.93 12.405-50.115 24.225a95.803 95.803 0 0 0-20.055 32.715A135.645 135.645 0 0 0 27.124 80l-.5 2.11a65.236 65.236 0 0 1-4.275 11.39c-1 2.28-2.04 4.56-2.935 6.92a16.696 16.696 0 0 0-1.32 8.36 19.11 19.11 0 0 0 7.285 11.18c2.445 2.24 4.05 3.82 4.07 5.195a8.22 8.22 0 0 1-.85 2.17A193.428 193.428 0 0 1 6.724 162.88c-3.625 4.41-7.425 9.555-6.625 14.705a15.28 15.28 0 0 0 7.26 9.37ZM109.999 55a5 5 0 0 1 5-5h60v22.5a5 5 0 0 0 8 4 7.71 7.71 0 0 1 10.335 1.325 7.542 7.542 0 0 1 1.445 6.465 7.415 7.415 0 0 1-4.78 5.285 7.55 7.55 0 0 1-7.045-1.095 5 5 0 0 0-7.955 4.02V115h-15.17c.387-2.76.12-5.572-.78-8.21a17.371 17.371 0 0 0-12.585-11.35A17.502 17.502 0 0 0 125.179 115h-15.18V55Zm0 130v-60h22.5a5 5 0 0 0 4-8 7.5 7.5 0 0 1 1.325-10.34 7.545 7.545 0 0 1 6.47-1.44 7.384 7.384 0 0 1 5.28 4.78 7.5 7.5 0 0 1-1.1 7.04 4.999 4.999 0 0 0 4.025 7.96h22.5v15.18a17.5 17.5 0 1 0 0 34.64V190h-60a5 5 0 0 1-5-5Zm72.225-22a5.03 5.03 0 0 0-5.245.5 7.5 7.5 0 0 1-10.048-11.047 7.5 7.5 0 0 1 10.048-.953 5 5 0 0 0 8-4V125h22.5a5 5 0 0 0 4-8 7.5 7.5 0 0 1 11.047-10.048 7.5 7.5 0 0 1 .953 10.048 5 5 0 0 0 4 8h22.52v60a5 5 0 0 1-5 5h-60v-22.5a5.001 5.001 0 0 0-2.775-4.5Zm42.775-153h60a5 5 0 0 1 5 5v60h-15.18c.117-.828.178-1.663.18-2.5 0-9.665-7.835-17.5-17.5-17.5s-17.5 7.835-17.5 17.5c.002.837.062 1.672.18 2.5h-15.18V59.825a17.69 17.69 0 0 0 8.22-.775 17.365 17.365 0 0 0 11.335-12.59 17.501 17.501 0 0 0-19.555-21.28V10Z"/><path d="m55.83 88.955.5-2.17c.887-4.18 2.012-8.304 3.37-12.355a65.331 65.331 0 0 1 13.755-22.5 42.211 42.211 0 0 1 13.6-9.16 5 5 0 1 0-4.09-9.12A51.91 51.91 0 0 0 66.18 45.07 75.229 75.229 0 0 0 50.305 71a120.04 120.04 0 0 0-3.735 13.555l-.5 2.2a5 5 0 0 0 3.775 6 5 5 0 0 0 5.985-3.8ZM45 110a5 5 0 1 0 0-10 5 5 0 0 0 0 10Z"/></g><defs><clipPath id="a"><path fill="#fff" d="M0 0h300v300H0z"/></clipPath></defs></svg>