<svg width="75" height="75" viewBox="0 0 75 75" fill="none" xmlns="http://www.w3.org/2000/svg">
<g clip-path="url(#clip0)">
<path d="M74.9267 22.0502C74.751 18.0652 74.1066 15.3255 73.1834 12.9515C72.2311 10.4316 70.766 8.17554 68.8464 6.30006C66.9709 4.39539 64.7 2.91538 62.2093 1.97793C59.8216 1.05478 57.0962 0.410351 53.1112 0.23465C49.0964 0.0440683 47.8218 0 37.6392 0C27.4565 0 26.182 0.0440683 22.182 0.219769C18.197 0.395471 15.4573 1.04047 13.0839 1.96305C10.5634 2.91538 8.30737 4.38051 6.43189 6.30006C4.52723 8.17554 3.04779 10.4465 2.10976 12.9372C1.18661 15.3255 0.542187 18.0503 0.366486 22.0353C0.175904 26.0501 0.131836 27.3247 0.131836 37.5073C0.131836 47.69 0.175904 48.9645 0.351605 52.9644C0.527307 56.9495 1.17231 59.6892 2.09545 62.0631C3.04779 64.583 4.52723 66.8391 6.43189 68.7146C8.30737 70.6193 10.5783 72.0993 13.069 73.0367C15.4573 73.9599 18.1821 74.6043 22.1677 74.78C26.1671 74.9563 27.4422 74.9998 37.6248 74.9998C47.8075 74.9998 49.082 74.9563 53.082 74.78C57.067 74.6043 59.8067 73.9599 62.1801 73.0367C67.2205 71.088 71.2055 67.103 73.1542 62.0631C74.0768 59.6749 74.7218 56.9495 74.8975 52.9644C75.0732 48.9645 75.1173 47.69 75.1173 37.5073C75.1173 27.3247 75.1024 26.0501 74.9267 22.0502ZM68.1728 52.6714C68.0114 56.3342 67.3962 58.3122 66.8834 59.6308C65.6231 62.8981 63.03 65.4913 59.7626 66.7515C58.444 67.2643 56.4518 67.8796 52.8032 68.0404C48.8474 68.2167 47.661 68.2602 37.654 68.2602C27.6471 68.2602 26.4458 68.2167 22.5043 68.0404C18.8414 67.8796 16.8635 67.2643 15.5449 66.7515C13.9189 66.1506 12.4389 65.1983 11.2376 63.9529C9.99227 62.7367 9.03994 61.2716 8.43901 59.6457C7.92621 58.327 7.31097 56.3342 7.15015 52.6863C6.97388 48.7304 6.93038 47.5435 6.93038 37.5365C6.93038 27.5296 6.97388 26.3283 7.15015 22.3873C7.31097 18.7245 7.92621 16.7465 8.43901 15.4279C9.03994 13.8014 9.99227 12.322 11.2525 11.1201C12.4681 9.87475 13.9332 8.92241 15.5598 8.32205C16.8784 7.80926 18.8712 7.19402 22.5191 7.03262C26.475 6.85692 27.662 6.81285 37.6683 6.81285C47.6902 6.81285 48.8766 6.85692 52.8181 7.03262C56.481 7.19402 58.4589 7.80926 59.7775 8.32205C61.4034 8.92241 62.8835 9.87475 64.0847 11.1201C65.3301 12.3363 66.2824 13.8014 66.8834 15.4279C67.3962 16.7465 68.0114 18.7388 68.1728 22.3873C68.3485 26.3431 68.3926 27.5296 68.3926 37.5365C68.3926 47.5435 68.3485 48.7156 68.1728 52.6714Z" fill="#FFEDDA"/>
<path d="M37.6395 18.2407C27.003 18.2407 18.373 26.8701 18.373 37.5072C18.373 48.1443 27.003 56.7736 37.6395 56.7736C48.2766 56.7736 56.906 48.1443 56.906 37.5072C56.906 26.8701 48.2766 18.2407 37.6395 18.2407ZM37.6395 50.0049C30.7391 50.0049 25.1418 44.4082 25.1418 37.5072C25.1418 30.6062 30.7391 25.0095 37.6395 25.0095C44.5405 25.0095 50.1372 30.6062 50.1372 37.5072C50.1372 44.4082 44.5405 50.0049 37.6395 50.0049Z" fill="#FFEDDA"/>
<path d="M62.1662 17.479C62.1662 19.9629 60.1522 21.9769 57.6678 21.9769C55.1839 21.9769 53.1699 19.9629 53.1699 17.479C53.1699 14.9946 55.1839 12.9812 57.6678 12.9812C60.1522 12.9812 62.1662 14.9946 62.1662 17.479Z" fill="#FFEDDA"/>
</g>
<defs>
<clipPath id="clip0">
<rect width="75" height="75" fill="white"/>
</clipPath>
</defs>
</svg>
