<svg width="512" height="512" viewBox="0 0 512 512" fill="none" xmlns="http://www.w3.org/2000/svg">
<path d="M170.642 212.462L110.139 15.236C107.262 6.124 97.4369 0 85.6909 0C73.6149 0 64.0009 6.033 61.2189 15.311L1.20988 210.93L1.12088 211.181C0.781879 212.126 0.150879 213.887 0.150879 216.254C0.150879 228.15 12.8699 236.143 24.7499 236.143C33.6849 236.143 40.6929 231.407 43.0699 223.679L53.9939 186.684H117.096L128.052 223.782C130.396 231.406 137.291 236.142 146.045 236.142C157.819 236.142 170.939 227.852 170.939 215.958C170.939 214.833 170.772 213.919 170.645 213.326V212.46H170.642V212.462ZM65.3119 147.201L85.6089 79.666L105.546 147.201H65.3119Z" fill="#EF6E4B"/>
<path d="M321.794 246.099C332.414 235.378 338.265 218.925 338.265 198.74C338.265 176.454 330.89 160.121 316.346 150.195C304.966 142.429 289.895 138.812 268.918 138.812H218.28C206.438 138.812 197.508 146.73 197.508 157.229V355.066C197.508 365.228 206.633 373.188 218.28 373.188H275.688C318.824 373.188 343.565 347.375 343.565 302.368V297.069C343.566 273.553 336.575 256.996 321.794 246.099ZM241.408 227.132V180.357H267.74C284.179 180.357 294.367 184.022 294.367 202.272C294.367 220.859 287.871 227.132 268.623 227.132H241.408ZM299.666 295.892V300.897C299.666 322.162 291.001 331.645 271.567 331.645H241.407V266.911H271.567C291.788 266.91 299.666 275.036 299.666 295.892Z" fill="#EFD873"/>
<path d="M489.899 426.885C471.402 426.885 468.47 439.701 468.013 443.899C466.268 457.572 464.56 470.456 440.146 470.456C418.8 470.456 409.692 460.82 409.692 438.236V349.621C409.692 327.037 418.536 317.402 439.263 317.402C457.998 317.402 467.118 325.267 467.964 342.206C468.416 350.32 474.432 359.796 489.9 359.796C504.465 359.796 511.85 352.015 511.85 336.668C511.85 300.864 481.759 275.857 438.675 275.857C417.89 275.857 400.283 281.716 387.757 292.801C373.184 305.699 365.794 324.817 365.794 349.622V438.237C365.794 463.047 373.127 482.157 387.588 495.038C400.048 506.136 417.611 512.001 438.381 512.001C459.62 512.001 477.928 505.982 491.325 494.594C504.56 483.344 511.85 467.615 511.85 450.307C511.849 434.765 504.464 426.885 489.899 426.885Z" fill="#46BEE8"/>
</svg>
