<svg width="100" height="100" fill="none" xmlns="http://www.w3.org/2000/svg"><g clip-path="url(#a)"><path d="M16.83 24.309c0 7.65 3.41 15.004 9.354 20.179l20.886 18.18v-2.82a2.93 2.93 0 0 1 5.86 0v2.823l20.887-18.183c5.945-5.174 9.354-12.53 9.354-20.178V.645a2.93 2.93 0 0 0-3.53-.104L66.353 9.979A51.942 51.942 0 0 0 50 7.365c-5.696 0-11.266.904-16.582 2.69L20.388.56a2.93 2.93 0 0 0-3.559.084v23.664Zm40.996 11.48a2.96 2.96 0 0 1 2.204-2.553 2.952 2.952 0 0 1 3.148 1.213 2.96 2.96 0 0 1-.082 3.371 2.954 2.954 0 0 1-3.203 1.059c-1.318-.4-2.206-1.718-2.067-3.09Zm-21.484 0a2.96 2.96 0 0 1 2.203-2.553 2.955 2.955 0 0 1 3.148 1.213 2.958 2.958 0 0 1-.082 3.371 2.956 2.956 0 0 1-3.205 1.059c-1.335-.406-2.177-1.714-2.064-3.09Z" fill="#FFEDDA"/><path d="M89.03 22.374v1.936c0 9.344-4.143 18.31-11.366 24.597L51.925 71.314c-.55.48-1.237.72-1.923.72-.686 0-1.372-.24-1.924-.72l-22.723-19.78a25.435 25.435 0 0 1-5.695 13.493 25.742 25.742 0 0 1-14.336 8.706c2.38 4.501 5.524 8.659 9.371 12.324C24.133 95.048 36.671 100 50 100s25.867-4.952 35.304-13.944C94.781 77.028 100 65.013 100 52.225c0-10.916-3.928-21.437-10.97-29.85Z" fill="#FFEDDA"/><path d="M3.91 68.044c8.964-1.846 15.506-9.69 15.72-18.749H2.93A2.93 2.93 0 0 0 0 52.225a45.912 45.912 0 0 0 2.939 16.213c.29-.183.615-.32.97-.394Z" fill="#3DB2FF"/></g><defs><clipPath id="a"><path fill="#fff" d="M0 0h100v100H0z"/></clipPath></defs></svg>