<svg width="500" height="500" viewBox="0 0 500 500" fill="none" xmlns="http://www.w3.org/2000/svg">
<g clip-path="url(#clip0)">
<path d="M84.1465 121.545C84.1465 159.792 101.195 196.567 130.921 222.441L235.352 313.341V299.245C235.352 291.155 241.91 284.597 250 284.597C258.09 284.597 264.648 291.155 264.648 299.245V313.357L369.086 222.442C398.808 196.569 415.854 159.796 415.854 121.552V3.22848C415.1 2.62399 414.282 2.0859 413.404 1.6318C408.536 -0.881871 402.669 -0.467809 398.202 2.70602L331.771 49.8964C305.534 41.2187 278.066 36.8242 250 36.8242C221.519 36.8242 193.668 41.3457 167.091 50.2754L101.941 2.80856C97.4873 -0.436559 91.5869 -0.906285 86.6738 1.59176C85.7666 2.05368 84.9219 2.60348 84.1465 3.22555V121.545ZM289.131 178.945C289.751 172.846 294.209 167.685 300.149 166.18C306.057 164.682 312.523 167.16 315.889 172.247C319.272 177.36 319.123 184.163 315.479 189.103C311.845 194.029 305.31 196.166 299.463 194.395C292.877 192.399 288.434 185.809 289.131 178.945V178.945ZM181.709 178.945C182.328 172.855 186.785 167.673 192.726 166.18C198.643 164.691 205.088 167.155 208.467 172.247C211.857 177.356 211.698 184.166 208.057 189.103C204.423 194.029 197.878 196.17 192.031 194.395C185.353 192.367 181.147 185.828 181.709 178.945V178.945Z" fill="#FF2442"/>
<path d="M445.15 111.872V121.55C445.15 168.271 424.437 213.099 388.321 244.537L259.628 356.568C256.871 358.969 253.44 360.169 250.01 360.169C246.579 360.169 243.149 358.969 240.393 356.569L126.773 257.673C124.12 282.34 114.243 305.898 98.2979 325.134C80 347.207 54.582 362.629 26.6191 368.665C38.5166 391.172 54.2422 411.958 73.4766 430.283C120.666 475.24 183.355 500 250 500C316.645 500 379.335 475.24 426.522 430.282C473.905 385.14 500 325.065 500 261.125C500 206.545 480.36 153.941 445.15 111.872V111.872Z" fill="#FF2442"/>
<path d="M19.5469 340.223C64.3701 330.988 97.0811 291.769 98.1524 246.477H14.6484C6.55859 246.477 0 253.035 0 261.125C0 289.205 5.03613 316.539 14.6943 342.191C16.1436 341.276 17.7686 340.589 19.5469 340.223V340.223Z" fill="#FFEDDA"/>
</g>
<defs>
<clipPath id="clip0">
<rect width="500" height="500" fill="white"/>
</clipPath>
</defs>
</svg>
