<svg width="512" height="512" fill="none" xmlns="http://www.w3.org/2000/svg"><g clip-path="url(#a)"><path d="m414.898 450.207 15.688 27.453a22.944 22.944 0 0 1-.078 22.906A22.944 22.944 0 0 1 410.66 512h-.098a22.954 22.954 0 0 1-19.925-11.562l-28.707-50.231 26.484-17.656 26.484 17.656ZM97.102 450.207 81.414 477.66a22.944 22.944 0 0 0 .078 22.906A22.944 22.944 0 0 0 101.34 512h.098a22.954 22.954 0 0 0 19.925-11.562l28.707-50.231-26.484-17.656-26.484 17.656ZM256 0c14.625 0 26.484 11.855 26.484 26.484v35.309h-52.968V26.484C229.516 11.855 241.375 0 256 0Z" fill="#AF8066"/><path d="M335.449 450.207h141.242a35.297 35.297 0 0 0 24.969-10.34A35.28 35.28 0 0 0 512 414.898V79.449a35.29 35.29 0 0 0-10.34-24.972 35.314 35.314 0 0 0-24.969-10.34H35.309a35.315 35.315 0 0 0-24.97 10.34A35.29 35.29 0 0 0 0 79.449v335.449a35.28 35.28 0 0 0 10.34 24.969 35.298 35.298 0 0 0 24.969 10.34H176.55" fill="#95A5A5"/><path d="M335.449 414.898h132.414a8.858 8.858 0 0 0 8.828-8.828V88.277c-.015-4.87-3.961-8.816-8.828-8.828H44.137c-4.867.012-8.813 3.957-8.828 8.828V406.07a8.858 8.858 0 0 0 8.828 8.828h291.312Z" fill="#fff"/><path d="M335.449 300.137v203.035a8.829 8.829 0 0 1-8.828 8.828H185.379a8.829 8.829 0 0 1-8.828-8.828V300.137h158.898Z" fill="#E64C3C"/><path d="M335.449 300.137c0 14.629-11.859 26.484-26.484 26.484-14.625 0-26.481-11.855-26.481-26.484 0 14.629-11.859 26.484-26.484 26.484-14.625 0-26.484-11.855-26.484-26.484 0 14.629-11.856 26.484-26.481 26.484-14.625 0-26.484-11.855-26.484-26.484l9.621-26.481 32.223-89.07 2.296.793L256 167.723l35.309 17.656 2.296-.793 32.223 89.07 9.621 26.481Z" fill="#FDD7AD"/><path d="M229.516 379.586c-4.875 0-8.825-3.953-8.825-8.828v-8.828c0-4.875 3.95-8.828 8.825-8.828a8.826 8.826 0 0 1 8.828 8.828v8.828a8.826 8.826 0 0 1-8.828 8.828ZM238.344 406.07V512h-17.653V406.07c0-4.875 3.95-8.828 8.825-8.828a8.826 8.826 0 0 1 8.828 8.828ZM282.484 379.586a8.826 8.826 0 0 1-8.828-8.828v-8.828a8.826 8.826 0 0 1 8.828-8.828c4.875 0 8.825 3.953 8.825 8.828v8.828c0 4.875-3.95 8.828-8.825 8.828ZM291.309 406.07V512h-17.653V406.07a8.826 8.826 0 0 1 8.828-8.828c4.875 0 8.825 3.953 8.825 8.828Z" fill="#C03A2B"/><path d="M105.93 203.035a8.83 8.83 0 0 1-7.567-4.285L74.45 158.898H61.793a8.829 8.829 0 0 1 0-17.656h17.656a8.821 8.821 0 0 1 7.567 4.285l16.609 27.68 20.414-61.242a8.83 8.83 0 0 1 8.375-6.035h61.793a8.829 8.829 0 0 1 0 17.656h-55.43L114.305 197a8.817 8.817 0 0 1-7.414 5.98 8.614 8.614 0 0 1-.961.055Z" fill="#F29C1F"/><path d="M167.723 203.035c-14.618-.015-26.465-11.863-26.481-26.484v-17.653c0-14.628 11.856-26.484 26.481-26.484 14.629 0 26.484 11.856 26.484 26.484v17.653c-.016 14.621-11.863 26.469-26.484 26.484Zm0-52.965a8.834 8.834 0 0 0-8.825 8.828v17.653c0 4.875 3.95 8.828 8.825 8.828a8.829 8.829 0 0 0 8.828-8.828v-17.653a8.834 8.834 0 0 0-8.828-8.828Z" fill="#F29C1F"/><path d="M105.93 282.484H88.277a8.829 8.829 0 0 1 0-17.656v-17.656a8.832 8.832 0 0 1-8.156-5.45 8.83 8.83 0 0 1 1.914-9.617l8.828-8.828a8.824 8.824 0 0 1 15.067 6.238v35.313a8.829 8.829 0 0 1 0 17.656ZM123.586 317.793H70.621a8.829 8.829 0 0 1 0-17.656h52.965a8.829 8.829 0 0 1 0 17.656ZM114.758 388.414H79.449a8.83 8.83 0 0 1-7.57-13.371l26.484-44.137a8.821 8.821 0 0 1 7.731-4.34 8.83 8.83 0 0 1 7.406 13.426l-18.46 30.766h19.718a8.829 8.829 0 0 1 0 17.656Z" fill="#894B9D"/><path d="M105.93 397.242a8.83 8.83 0 0 1-8.828-8.828v-8.828a8.83 8.83 0 0 1 17.656 0v8.828a8.829 8.829 0 0 1-8.828 8.828Z" fill="#894B9D"/><path d="M365.586 158.898a8.829 8.829 0 0 1 0-17.656 8.83 8.83 0 0 0 6.246-15.07 9.045 9.045 0 0 0-12.484 0 8.816 8.816 0 0 1-8.574 2.398 8.821 8.821 0 0 1-6.301-6.293 8.82 8.82 0 0 1 2.386-8.578c10.477-10.012 26.973-10.011 37.454-.004a26.476 26.476 0 0 1 5.734 28.856 26.48 26.48 0 0 1-24.461 16.347Z" fill="#4482C3"/><path d="M365.586 194.207a26.302 26.302 0 0 1-18.727-7.762 8.829 8.829 0 0 1 3.915-14.875 8.828 8.828 0 0 1 8.574 2.399 9.045 9.045 0 0 0 12.484 0 8.825 8.825 0 0 0-6.246-15.071 8.829 8.829 0 0 1 0-17.656c14.625 0 26.484 11.856 26.484 26.481 0 14.629-11.859 26.484-26.484 26.484ZM427.379 282.484a8.829 8.829 0 0 1 0-17.656 8.826 8.826 0 0 0 6.242-15.066 9.03 9.03 0 0 0-12.484-.004 8.825 8.825 0 0 1-12.387-.094 8.824 8.824 0 0 1-.093-12.387c10.48-10.007 26.976-10.004 37.457.008a26.487 26.487 0 0 1 5.726 28.856 26.492 26.492 0 0 1-24.461 16.343Z" fill="#4482C3"/><path d="M427.379 317.793a26.289 26.289 0 0 1-18.722-7.758 8.828 8.828 0 0 1 12.48-12.484 9.032 9.032 0 0 0 12.477.008 8.822 8.822 0 0 0 1.921-9.621 8.822 8.822 0 0 0-8.156-5.454 8.829 8.829 0 0 1 0-17.656c14.625 0 26.485 11.856 26.485 26.481 0 14.629-11.86 26.484-26.485 26.484ZM361.93 256a8.828 8.828 0 0 1-6.239-15.07l79.446-79.446c3.464-3.347 8.972-3.301 12.375.106a8.828 8.828 0 0 1 .109 12.375l-79.449 79.449A8.802 8.802 0 0 1 361.93 256Z" fill="#4482C3"/><path d="M379.586 353.102h-8.828c-4.875 0-8.828-3.95-8.828-8.825a8.829 8.829 0 0 1 8.828-8.828h8.828a8.829 8.829 0 0 1 8.828 8.828c0 4.875-3.953 8.825-8.828 8.825ZM441.379 353.102H406.07c-4.875 0-8.828-3.95-8.828-8.825a8.829 8.829 0 0 1 8.828-8.828h35.309a8.829 8.829 0 0 1 8.828 8.828c0 4.875-3.953 8.825-8.828 8.825ZM441.379 388.414h-70.621a8.829 8.829 0 0 1 0-17.656h70.621a8.829 8.829 0 0 1 0 17.656Z" fill="#71C285"/><path d="m293.605 184.586-2.296.793h-70.618l-2.296-.793 21.007-58.176A17.651 17.651 0 0 1 256 114.758c7.434 0 14.07 4.66 16.598 11.652l21.007 58.176Z" fill="#2C2F38"/></g><defs><clipPath id="a"><path fill="#fff" d="M0 0h512v512H0z"/></clipPath></defs></svg>