<svg width="1921" height="1081" viewBox="0 0 1921 1081" fill="none" xmlns="http://www.w3.org/2000/svg">
<rect width="1920" height="1080" fill="white"/>
<path d="M0 0H925C925 0 1014.5 424.5 618.5 209.5C222.5 -5.5 0 669 0 669V0Z" fill="#EE9A38" fill-opacity="0.2"/>
<path d="M1296.5 161.48C937.662 120.415 1064.91 1 1064.91 1L1528.09 1C1528.09 1 1655.34 202.546 1296.5 161.48Z" fill="#EE9A38" fill-opacity="0.2"/>
<path d="M0 856.129C0 731.791 1318.45 610.872 798.665 856.129C278.883 1101.39 798.665 1080.56 798.665 1080.56H0C0 1080.56 0 980.468 0 856.129Z" fill="#EE9A38" fill-opacity="0.2"/>
<path d="M377 615C377 669.676 315.663 714 240 714C164.337 714 103 669.676 103 615C103 560.323 208.5 367.5 240 516C271.5 664.5 377 560.323 377 615Z" fill="#3DB2FF" fill-opacity="0.2"/>
<path d="M1920 372L1920 1081H1157C1157 1081 1811.25 1043.72 1559.3 754.616C1307.34 465.515 1920 372 1920 372Z" fill="#EE9A38" fill-opacity="0.2"/>
<path d="M1779.94 184C1835.39 -12.5002 1920.9 50.3885 1920.9 50.3885V317.611C1920.9 317.611 1724.5 380.5 1779.94 184Z" fill="#EE9A38" fill-opacity="0.2"/>
<path d="M552.937 276.875C809.362 233.118 737.087 550.655 1408 245C2078.91 -60.6552 1406.61 477.477 1353.79 610.382C1300.96 743.287 1582.55 822.931 1491.33 928.956C1400.11 1034.98 1378.68 928.956 1300.96 973.258C1223.24 1017.56 975.537 1051.41 804.105 996.653C632.672 941.898 1000.95 870.219 1068.23 810.984C1135.51 751.749 1276.04 613.368 1053.78 637.261C831.515 661.155 893.808 712.424 552.937 637.261C212.065 562.098 296.511 320.633 552.937 276.875Z" fill="#3DB2FF" fill-opacity="0.2"/>
</svg>
