<svg width="50" height="50" fill="none" xmlns="http://www.w3.org/2000/svg"><g clip-path="url(#a)" fill="#000"><path d="M38.542 35.417c-.188 0-.377-.036-.557-.102L1.006 21.252a1.561 1.561 0 0 1-.008-2.917L47.873.106a1.57 1.57 0 0 1 1.63.31c.437.409.605 1.032.428 1.605l-9.896 32.291a1.56 1.56 0 0 1-1.494 1.104ZM5.917 19.775 37.537 31.8l8.46-27.613-40.08 15.588Z"/><path d="M17.708 39.583a1.558 1.558 0 0 1-1.563-1.563V26.043c0-.477.217-.925.588-1.223L47.463.339a1.569 1.569 0 0 1 2.197.249 1.567 1.567 0 0 1-.248 2.197L19.27 26.794v7.183l5.17-5.687a1.56 1.56 0 0 1 2.205-.107c.64.58.688 1.57.107 2.207l-7.888 8.68a1.56 1.56 0 0 1-1.156.513Z"/><path d="M16.637 41.362a1.565 1.565 0 0 1-1.3-2.427c.613-.92.963-1.595.982-1.629a1.553 1.553 0 0 1 2.102-.673 1.562 1.562 0 0 1 .679 2.1s-.415.813-1.158 1.934c-.3.45-.798.695-1.305.695ZM5.848 47.104a1.63 1.63 0 0 1-.408-.054c-1.965-.533-3.404-1.717-4.277-3.52a1.564 1.564 0 0 1 2.817-1.358c.476.993 1.18 1.566 2.279 1.866a1.562 1.562 0 0 1 1.097 1.916 1.565 1.565 0 0 1-1.508 1.15Zm4.331-.01c-.658 0-1.27-.419-1.487-1.081a1.565 1.565 0 0 1 1.004-1.97c.998-.32 2.033-.99 3.075-1.987a1.563 1.563 0 1 1 2.163 2.259c-1.386 1.325-2.821 2.233-4.271 2.704a1.58 1.58 0 0 1-.484.075ZM1.623 40.106a1.56 1.56 0 0 1-1.556-1.46A34.244 34.244 0 0 1 0 36.458a1.563 1.563 0 0 1 3.125 0c0 .702.019 1.363.058 1.984a1.56 1.56 0 0 1-1.456 1.66c-.035.002-.069.004-.104.004Z"/></g><defs><clipPath id="a"><path fill="#fff" d="M0 0h50v50H0z"/></clipPath></defs></svg>