<svg width="512" height="512" fill="none" xmlns="http://www.w3.org/2000/svg"><path d="M496 48H16v256h480V48Z" fill="#B5AEAC"/><path d="M480 48H16v256h464V48Z" fill="#F2E8E5"/><path d="m202.339 114.345-87.997 87.997 11.314 11.313 87.997-87.997-11.314-11.313Z" fill="#737373"/><path d="M209.872 288.016A23.922 23.922 0 0 0 216 272c0-7.096-3.08-13.472-7.976-17.864l-3.112-2.344A23.924 23.924 0 0 0 208 240c0-13.256-10.744-24-24-24-7.128 0-13.536 3.112-17.928 8.048l.048-1.392C162.472 214.048 153.944 208 144 208a23.91 23.91 0 0 0-17.208 7.272l.008.008C123 201.848 110.648 192 96 192c-17.672 0-32 14.328-32 32a31.83 31.83 0 0 0 4.432 16.256l-.192.12A23.881 23.881 0 0 0 64 240c-13.256 0-24 10.744-24 24s10.744 24 24 24h144l1.872.016Z" fill="#999"/><path d="M496 304H16v32h480v-32Z" fill="#7D5D3E"/><path d="M480 304H16v32h464v-32Z" fill="#A67C52"/><path d="M208 496H48L32 288h192l-16 208Z" fill="#B19231"/><path d="m32 288 16 208h136l16-208H32Z" fill="#ECC341"/><path d="M352 432h104c8.84 0 16 7.16 16 16s-7.16 16-16 16h-72c-8.84 0-16 7.16-16 16s-7.16 16-16 16h-88c-8.84 0-16-7.16-16-16s7.16-16 16-16h56c8.84 0 16-7.16 16-16s7.16-16 16-16Z" fill="#29ABE2"/><path d="M448 448c0-8.84-7.16-16-16-16h-80c-8.84 0-16 7.16-16 16s-7.16 16-16 16h-56c-8.84 0-16 7.16-16 16s7.16 16 16 16h64c8.84 0 16-7.16 16-16s7.16-16 16-16h72c8.84 0 16-7.16 16-16Z" fill="#54BCE8"/><path d="M408 224H264v48h144v-48Z" fill="#737373"/><path d="M384 224H264v48h120v-48Z" fill="#999"/><path d="M496 16H16v32h480V16Z" fill="#7D5D3E"/><path d="M480 16H16v32h464V16Z" fill="#A67C52"/><path d="M480 256c8.837 0 16-7.163 16-16s-7.163-16-16-16-16 7.163-16 16 7.163 16 16 16Z" fill="#29ABE2"/><path d="M472 253.784c4.418 0 8-6.171 8-13.784s-3.582-13.784-8-13.784-8 6.171-8 13.784 3.582 13.784 8 13.784Z" fill="#54BCE8"/><path d="M240 112c8.837 0 16-7.163 16-16s-7.163-16-16-16-16 7.163-16 16 7.163 16 16 16Z" fill="#29ABE2"/><path d="M232 109.784c4.418 0 8-6.171 8-13.784s-3.582-13.784-8-13.784-8 6.171-8 13.784 3.582 13.784 8 13.784Z" fill="#54BCE8"/><path d="M464 144c17.673 0 32-14.327 32-32 0-17.673-14.327-32-32-32-17.673 0-32 14.327-32 32 0 17.673 14.327 32 32 32Z" fill="#29ABE2"/><path d="M452 141.624c11.046 0 20-13.263 20-29.624 0-16.36-8.954-29.624-20-29.624S432 95.639 432 112c0 16.361 8.954 29.624 20 29.624Z" fill="#54BCE8"/><path d="M408 240c13.8-3.552 24-16.08 24-30.992 0-12.688-7.44-23.552-18.144-28.728 1.328-3.52 2.144-7.288 2.144-11.272 0-17.672-14.328-32-32-32-.376 0-.728.096-1.096.112-3.528-13.832-15.968-24.112-30.904-24.112-10.064 0-18.936 4.744-24.8 12.008-4.544-2.472-9.664-4.008-15.2-4.008-15.392 0-28.224 10.872-31.288 25.352-2.784-.792-5.672-1.352-8.712-1.352-17.672 0-32 14.328-32 32 0 9.616 4.328 18.136 11.04 24-6.712 5.864-11.04 14.384-11.04 24 0 14.912 10.2 27.44 24 30.992v-30.992h144V240Z" fill="#29ABE2"/><path d="M408 225.008V240c9.856-2.536 17.8-9.696 21.576-18.984a32.206 32.206 0 0 0-15.72-16.736c1.328-3.52 2.144-7.288 2.144-11.272 0-17.672-14.328-32-32-32-.376 0-.728.096-1.096.112-3.528-13.832-15.968-24.112-30.904-24.112-10.064 0-18.936 4.744-24.8 12.008-4.544-2.472-9.664-4.008-15.2-4.008-15.392 0-28.224 10.872-31.288 25.352-2.784-.792-5.672-1.352-8.712-1.352-13.344 0-24.752 8.176-29.56 19.784 1.92 4.712 4.816 8.912 8.592 12.216-3.72 3.256-6.6 7.376-8.52 12 1.92 4.624 4.8 8.744 8.52 12-3.752 3.28-6.64 7.448-8.56 12.12 3.8 9.232 11.712 16.344 21.528 18.872v-30.992h144Z" fill="#54BCE8"/><path d="m352 304 24-32v-16h-80v16l24 32v96h32v-96Z" fill="#7D5D3E"/><path d="M360 272v-16h-64v16l24 32v96h16v-96l24-32Z" fill="#A67C52"/><path d="M128 384c-35.288 0-64-28.712-64-64v-8h16v8c0 26.472 21.528 48 48 48s48-21.528 48-48v-8h16v8c0 35.288-28.712 64-64 64ZM209.848 472l1.232-16H44.92l1.232 16h163.696Z" fill="#594919"/><path d="M138.338 114.347 90.34 162.345l11.313 11.314 47.998-47.998-11.313-11.314Z" fill="#737373"/><path d="M448 392h-72v16h72v-16ZM480 392h-16v16h16v-16Z" fill="#155671"/></svg>