<svg width="512" height="512" fill="none" xmlns="http://www.w3.org/2000/svg"><g clip-path="url(#a)"><path d="m307.78 469.823-10 7.5 10 7.5v2.9c0 11.38-9.23 20.6-20.6 20.6h-62.36c-11.37 0-20.6-9.22-20.6-20.6v-2.9l10-7.5-10-7.5v-33.63h103.56v33.63Z" fill="#D8ECFE"/><path d="M254.48 508.323h-29.66c-11.37 0-20.6-9.22-20.6-20.6v-2.9l10-7.5-10-7.5v-33.64h30.01v51.54c0 11.26 9.04 20.42 20.25 20.6Z" fill="#B3DAFE"/><path d="M281.885 306.497c0 14.303-11.582 25.895-25.885 25.895v85.335h-51.781v-25.163c0-9.922-5.661-19.024-14.633-23.275-52.561-24.905-88.928-78.426-88.928-140.449v-.18h51.781v.17c0 14.293 11.592 25.895 25.885 25.895 14.303 0 25.895-11.602 25.895-25.895v-.17H256v51.951c14.303.001 25.885 11.593 25.885 25.886Z" fill="#6FD7A3"/><path d="M224.223 392.565v25.163h-20.004v-25.163c0-9.922-5.661-19.024-14.633-23.275-52.561-24.905-88.928-78.426-88.928-140.449v-.18h20.004v.18c0 62.023 36.368 115.544 88.928 140.449 8.972 4.251 14.633 13.353 14.633 23.275Z" fill="#89DAA4"/><path d="M411.342 228.661v.17c0 62.003-36.328 115.514-88.868 140.429-8.992 4.261-14.693 13.353-14.693 23.305v25.163H256v-85.335c14.303 0 25.885-11.592 25.885-25.895 0-14.293-11.582-25.885-25.885-25.885v-51.951h51.781c.09-14.223 11.652-25.725 25.895-25.725 14.233 0 25.795 11.502 25.885 25.725h51.781v-.001Z" fill="#3DB2FF"/><path d="M411.342 228.661h-51.781c-.09-14.223-11.652-25.725-25.885-25.725-14.243 0-25.805 11.502-25.895 25.725H256V177.05c-14.303 0-25.885-11.592-25.885-25.895 0-14.303 11.582-25.885 25.885-25.885V73.489c85.738 0 155.252 69.455 155.342 155.172Z" fill="#EE9A38"/><path d="M230.115 151.155c0 14.303 11.582 25.895 25.885 25.895v51.611h-51.781v.17c0 14.293-11.592 25.895-25.895 25.895-14.293 0-25.885-11.602-25.885-25.895v-.17h-51.781c.09-85.957 69.384-155.172 155.342-155.172v51.781c-14.303 0-25.885 11.583-25.885 25.885Z" fill="#E5374E"/><path d="M256 73.489v1.27c-76.456 9.752-135.258 74.725-135.338 153.902h-20.004c.09-85.957 69.384-155.172 155.342-155.172Z" fill="#FD4755"/><path d="M204.22 469.823h103.56v15H204.22v-15Z" fill="#EAF6FF"/><path d="M204.22 469.823h30.01v15h-30.01v-15Z" fill="#D8ECFE"/><path d="M256 49.749a7.502 7.502 0 0 1-7.502-7.502V11.179A7.502 7.502 0 0 1 256 3.677a7.502 7.502 0 0 1 7.502 7.502v31.069A7.502 7.502 0 0 1 256 49.749ZM364.708 78.88a7.46 7.46 0 0 1-3.744-1.007 7.502 7.502 0 0 1-2.746-10.247l15.534-26.906a7.502 7.502 0 0 1 12.993 7.501l-15.534 26.906a7.496 7.496 0 0 1-6.503 3.753ZM444.306 158.465a7.5 7.5 0 0 1-3.757-13.999l26.906-15.534a7.5 7.5 0 0 1 10.247 2.746 7.5 7.5 0 0 1-2.746 10.247l-26.906 15.534a7.476 7.476 0 0 1-3.744 1.006ZM40.8 391.429a7.5 7.5 0 0 1-3.757-13.999l26.907-15.534a7.501 7.501 0 1 1 7.5 12.993l-26.905 15.534a7.476 7.476 0 0 1-3.744 1.006ZM147.292 78.88a7.497 7.497 0 0 1-6.503-3.752l-15.534-26.906a7.5 7.5 0 0 1 2.746-10.247 7.5 7.5 0 0 1 10.247 2.746l15.534 26.906a7.5 7.5 0 0 1-6.49 11.253ZM67.694 158.465a7.46 7.46 0 0 1-3.744-1.007l-26.906-15.534a7.502 7.502 0 0 1-2.746-10.247 7.5 7.5 0 0 1 10.247-2.746l26.906 15.534a7.502 7.502 0 0 1-3.757 14ZM471.199 391.429a7.457 7.457 0 0 1-3.744-1.007l-26.906-15.534a7.502 7.502 0 0 1 7.501-12.993l26.906 15.534a7.502 7.502 0 0 1-3.757 14ZM38.57 267.178H7.502a7.502 7.502 0 0 1 0-15.004H38.57a7.502 7.502 0 0 1 0 15.004ZM504.498 267.178H473.43a7.502 7.502 0 0 1 0-15.004h31.069a7.502 7.502 0 1 1-.001 15.004Z" fill="#FFE177"/><path d="M318.137 446.089H193.863c-8.579 0-15.534-6.955-15.534-15.534s6.955-15.534 15.534-15.534h124.275c8.579 0 15.534 6.955 15.534 15.534s-6.955 15.534-15.535 15.534Z" fill="#EAF6FF"/><path d="M223.873 446.086h-30.006c-8.582 0-15.543-6.951-15.543-15.533 0-4.291 1.74-8.172 4.551-10.982a15.507 15.507 0 0 1 10.992-4.551h30.006a15.5 15.5 0 0 0-10.992 4.551 15.483 15.483 0 0 0-4.551 10.982c0 8.582 6.962 15.533 15.543 15.533Z" fill="#D8ECFE"/></g><defs><clipPath id="a"><path fill="#fff" d="M0 0h512v512H0z"/></clipPath></defs></svg>