<svg width="50" height="50" viewBox="0 0 50 50" fill="none" xmlns="http://www.w3.org/2000/svg">
<path d="M49.9888 15.3208C49.9888 15.3154 49.9893 15.3099 49.9893 15.3045C49.9893 8.73099 44.6606 3.40222 38.087 3.40222C31.5135 3.40222 26.1848 8.73089 26.1848 15.3045C26.1848 21.8782 31.5141 27.2069 38.0871 27.2069C39.4381 27.2069 40.7313 26.9713 41.9413 26.5564C39.2635 41.9183 27.2841 51.8251 38.3889 43.6716C50.7025 34.6302 50.0025 15.6677 49.9888 15.3208Z" fill="#3DB2FF"/>
<path d="M11.9023 27.2068C13.2533 27.2068 14.5465 26.9712 15.7571 26.5563C13.0786 41.9182 1.09922 51.825 12.2041 43.6715C24.5177 34.6302 23.8178 15.6677 23.8039 15.3208C23.8039 15.3154 23.8045 15.3099 23.8045 15.3045C23.8045 8.73099 18.4759 3.40222 11.9023 3.40222C5.32867 3.40222 0 8.73089 0 15.3045C0 21.8782 5.32926 27.2068 11.9023 27.2068Z" fill="#3DB2FF"/>
</svg>
