<svg width="550" height="550" fill="none" xmlns="http://www.w3.org/2000/svg"><g clip-path="url(#a)"><path d="M471.871 77.508h26.656c10.825 0 19.601-8.775 19.601-19.6v-14.72c0-10.824-8.776-19.6-19.601-19.6h-26.656v53.92Z" fill="#FEE45A"/><path d="M450.446 166.231v91.008a9.95 9.95 0 0 1-2.909 7.042l-8.287 8.276a6.777 6.777 0 0 0 0 9.576l8.244 8.244a4.806 4.806 0 0 1 1.406 3.403v68.196l-5.624 15.007a13.053 13.053 0 0 0-.816 4.53l.665 128.686H106.221V377.123l7.75-7.75a5.099 5.099 0 0 0 0-7.203l-6.892-6.903a8.236 8.236 0 0 1-2.426-5.85v-23.069c0-1.835.73-3.596 2.029-4.895l15.018-15.017a15.323 15.323 0 0 0 4.487-10.842v-30.368c0-4.069-1.61-7.965-4.487-10.842l-10.381-10.381a8.061 8.061 0 0 1-2.361-5.7v-55.004l7.278-7.267a7.452 7.452 0 0 0 0-10.52l-4.53-4.53V42.472h329.165l-.386 109.676 7.052 7.052a9.908 9.908 0 0 1 2.909 7.031Z" fill="#FEF1DA"/><path d="M442.783 444.097h-230.93c-21.459 0-38.856-17.396-38.856-38.856V144.759c0-21.46 17.397-38.856 38.856-38.856h228.794l.223-63.43H111.705v118.509l4.53 4.53a7.452 7.452 0 0 1 0 10.52l-7.278 7.267v55.003c0 2.139.849 4.19 2.362 5.701l10.38 10.381a15.323 15.323 0 0 1 4.487 10.833v30.377c0 4.068-1.617 7.971-4.494 10.848l-15.011 15.011a6.928 6.928 0 0 0-2.029 4.899v23.065c0 2.201.87 4.304 2.426 5.85l6.892 6.903a5.099 5.099 0 0 1 0 7.203l-7.75 7.75v133.076h336.904l-.341-66.102Z" fill="#FAE2C0"/><path d="M77.364 16.663h395.814v67.77H77.364v-67.77Z" fill="#FEF1DA"/><path d="M462.83 92.84h7.252c7.51 0 13.598-6.087 13.598-13.597V21.856c0-7.51-6.088-13.598-13.598-13.598h-7.252c-7.51 0-13.598 6.088-13.598 13.598v57.386c-.001 7.51 6.088 13.598 13.598 13.598Z" fill="#C68D7A"/><path d="M78.128 77.508H51.472c-10.824 0-19.6-8.775-19.6-19.6v-14.72c0-10.824 8.776-19.6 19.6-19.6h26.656v53.92Z" fill="#FEE45A"/><path d="M87.171 92.84H79.92c-7.51 0-13.598-6.087-13.598-13.597V21.856c0-7.51 6.088-13.598 13.598-13.598h7.252c7.51 0 13.598 6.088 13.598 13.598v57.386c0 7.51-6.09 13.598-13.598 13.598Z" fill="#C68D7A"/><path d="M71.987 465.566h404.179v67.202H71.987v-67.202Z" fill="#FEF1DA"/><path d="M475.092 526.412h23.436c10.824 0 19.6-8.776 19.6-19.6v-14.721c0-10.825-8.776-19.6-19.6-19.6h-23.436v53.921Z" fill="#FEE45A"/><path d="M462.83 541.743h7.252c7.51 0 13.598-6.088 13.598-13.597V470.76c0-7.51-6.088-13.598-13.598-13.598h-7.252c-7.51 0-13.598 6.088-13.598 13.598v57.386c-.001 7.508 6.088 13.597 13.598 13.597Z" fill="#C68D7A"/><path d="M78.128 526.412H51.472c-10.824 0-19.6-8.776-19.6-19.6v-14.721c0-10.825 8.776-19.6 19.6-19.6h26.656v53.921Z" fill="#FEE45A"/><path d="M87.171 541.743H79.92c-7.51 0-13.598-6.088-13.598-13.597V470.76c0-7.51 6.088-13.598 13.598-13.598h7.252c7.51 0 13.598 6.088 13.598 13.598v57.386c0 7.508-6.09 13.597-13.598 13.597Z" fill="#C68D7A"/><path d="M540.876 491.401h-14.715c-.37-14.928-12.619-26.96-27.633-26.96h-7.743c-2.711-8.863-10.963-15.331-20.703-15.331h-7.252a21.523 21.523 0 0 0-12.322 3.871V381.51c0-.583.103-1.153.307-1.697l5.628-15.011c.338-.904.513-1.86.513-2.827v-68.2c0-3.432-1.337-6.66-3.765-9.087l-7.341-7.342 7.377-7.377a17.887 17.887 0 0 0 5.271-12.729v-36.842a8.05 8.05 0 1 0-16.101 0v36.842c0 .508-.199.986-.556 1.343l-8.286 8.285c-5.778 5.778-5.778 15.179 0 20.955l7.298 7.297v43.7h-87.747a8.05 8.05 0 1 0 0 16.102h87.747v5.592l-5.115 13.642a20.846 20.846 0 0 0-1.333 7.353v76.005H172.623a8.05 8.05 0 1 0 0 16.102H441.18v51.669H108.82v-51.669h29.493a8.052 8.052 0 0 0 0-16.102H114.27v-77.056l5.395-5.395a13.059 13.059 0 0 0 3.85-9.295c0-3.511-1.367-6.813-3.85-9.295l-6.896-6.896a.224.224 0 0 1-.066-.157v-22.606l14.686-14.686a23.23 23.23 0 0 0 6.85-16.537v-30.367a23.23 23.23 0 0 0-6.85-16.538l-10.378-10.389v-23.569h38.457a8.052 8.052 0 0 0 0-16.102h-38.457v-11.992l4.916-4.916c6.038-6.038 6.038-15.861 0-21.898l-2.174-2.174V92.485h312.684v59.664c0 2.135.848 4.183 2.358 5.693l7.047 7.047c.358.358.557.836.557 1.344v19.854a8.05 8.05 0 0 0 8.051 8.051 8.05 8.05 0 0 0 8.051-8.051v-19.854c0-4.808-1.872-9.329-5.273-12.731l-4.689-4.688V95.46c3.817 3.368 8.813 5.43 14.292 5.43h7.252c9.74 0 17.992-6.468 20.703-15.331h7.743c15.014 0 27.265-12.032 27.633-26.96h15.788a8.05 8.05 0 0 0 8.051-8.05 8.05 8.05 0 0 0-8.051-8.052h-15.788c-.37-14.928-12.619-26.96-27.633-26.96h-7.744C488.074 6.674 479.822.207 470.082.207h-7.252c-6.948 0-13.124 3.301-17.088 8.404h-24.967a8.05 8.05 0 1 0 0 16.102h20.405v51.669H108.82V24.714h277.645a8.05 8.05 0 0 0 8.051-8.05 8.05 8.05 0 0 0-8.051-8.052H104.259C100.294 3.51 94.118.207 87.171.207H79.92c-9.74 0-17.992 6.467-20.703 15.331h-7.744c-15.015 0-27.265 12.033-27.633 26.96H8.051a8.051 8.051 0 0 0 0 16.102h15.788c.37 14.928 12.619 26.96 27.633 26.96h7.743c2.71 8.865 10.963 15.331 20.703 15.331h7.252c6.598 0 12.505-2.974 16.479-7.643v67.734a8.05 8.05 0 0 0 2.358 5.693l4.096 4.096-6.836 6.837a8.044 8.044 0 0 0-2.359 5.693v54.998a16.02 16.02 0 0 0 4.723 11.402l10.372 10.372a7.239 7.239 0 0 1 2.134 5.152v30.367a7.237 7.237 0 0 1-2.134 5.151l-15.019 15.019a14.869 14.869 0 0 0-4.382 10.582v23.076c0 4.361 1.698 8.46 4.781 11.543l4.806 4.806-5.663 5.663a8.046 8.046 0 0 0-2.358 5.692v75.019a21.488 21.488 0 0 0-10.997-3.034H79.92c-9.74 0-17.992 6.467-20.703 15.331h-7.744c-15.015 0-27.265 12.033-27.633 26.96H8.051a8.051 8.051 0 0 0 0 16.102h15.788c.37 14.927 12.619 26.96 27.633 26.96h7.743c2.71 8.864 10.963 15.331 20.703 15.331h7.252c6.948 0 13.124-3.303 17.089-8.406h341.483c3.964 5.103 10.14 8.406 17.088 8.406h7.252c9.74 0 17.992-6.468 20.703-15.331h7.743c15.014 0 27.264-12.033 27.633-26.96h14.715a8.05 8.05 0 1 0 0-16.101ZM510.077 43.189v14.72c0 6.368-5.18 11.548-11.549 11.548h-6.797V31.64h6.797c6.369 0 11.549 5.182 11.549 11.55Zm-47.247-26.88h7.252a5.554 5.554 0 0 1 5.547 5.547v57.386a5.553 5.553 0 0 1-5.547 5.546h-7.252a5.554 5.554 0 0 1-5.548-5.546V21.856c0-3.06 2.49-5.547 5.548-5.547ZM39.923 57.91v-14.72c0-6.37 5.18-11.55 11.55-11.55h6.796v37.818h-6.797c-6.367 0-11.549-5.18-11.549-11.548Zm52.795 21.333a5.552 5.552 0 0 1-5.547 5.546H79.92a5.553 5.553 0 0 1-5.547-5.546V21.856a5.553 5.553 0 0 1 5.547-5.547h7.252a5.553 5.553 0 0 1 5.547 5.547v57.386Zm-52.795 427.57v-14.721c0-6.368 5.18-11.549 11.55-11.549h6.796v37.818h-6.797c-6.367 0-11.549-5.181-11.549-11.548Zm47.248 26.88H79.92a5.553 5.553 0 0 1-5.547-5.546V470.76a5.552 5.552 0 0 1 5.547-5.547h7.252a5.553 5.553 0 0 1 5.547 5.547v57.386a5.553 5.553 0 0 1-5.547 5.546Zm388.458-5.547a5.553 5.553 0 0 1-5.547 5.546h-7.252a5.553 5.553 0 0 1-5.548-5.546v-57.386a5.553 5.553 0 0 1 5.548-5.547h7.252a5.553 5.553 0 0 1 5.547 5.547v57.386Zm34.448-21.333c0 6.367-5.18 11.548-11.549 11.548h-6.797v-37.818h6.797c6.369 0 11.549 5.181 11.549 11.549v14.721Z" fill="#000"/><path d="M197.464 214.73a8.052 8.052 0 0 0 0-16.102h-7.073a8.052 8.052 0 0 0 0 16.102h7.073ZM289.945 266.948a8.05 8.05 0 0 0-8.05 8.051 8.05 8.05 0 0 0 8.05 8.051h58.813a8.05 8.05 0 1 0 0-16.102h-58.813ZM193.927 341.858h12.095a8.05 8.05 0 0 0 8.05-8.051 8.05 8.05 0 0 0-8.05-8.051h-12.095a8.05 8.05 0 1 0 0 16.102Z" fill="#000"/></g><defs><clipPath id="a"><path fill="#fff" d="M0 0h550v550H0z"/></clipPath></defs></svg>