<svg width="512" height="512" fill="none" xmlns="http://www.w3.org/2000/svg"><g clip-path="url(#a)"><path d="M441.576 64.775c10.608 5.304 15.995 17.345 12.885 28.788L403.353 281.45l-1.895 83.716a118.61 118.61 0 0 1-21.001 64.734l-14.461 20.929v45.735c0 8.525-6.911 15.435-15.435 15.435H201.268c-8.525 0-15.435-6.911-15.435-15.435v-54.047a80.155 80.155 0 0 1-44.206-57.174l-1.463-7.581-80.317-44.082c-11.495-6.314-18.014-18.19-18.014-30.457a34.51 34.51 0 0 1 4.11-16.345c8.63-16.13 28.303-22.783 44.957-15.213l61.717 28.056 3.398-4.593a111.56 111.56 0 0 1 11.732-13.472 111.31 111.31 0 0 1 13.719-11.423l-58.235-214.09a29.715 29.715 0 0 1-1.05-7.818c0-12.164 7.519-23.462 19.425-27.86 15.625-5.768 32.928 2.42 38.377 18.148l63.137 182.233V28.571c0-7.89 3.193-15.037 8.364-20.208A28.464 28.464 0 0 1 271.681 0c15.512 0 28.191 12.38 28.562 27.881l4.315 178.855 26.46-171.676c2.019-13.06 13.266-22.278 25.935-22.278 1.844 0 3.718.196 5.593.597 12.895 2.802 21.722 14.719 20.62 27.872l-13.853 165.485 37.274-126.728c3.235-11.01 13.267-17.87 23.886-17.87 3.718 0 7.508.845 11.103 2.637Z" fill="#C07B59"/><path d="M215.323 428.249c0-5.726-3.009-10.994-7.87-14.02a80.162 80.162 0 0 1-36.336-52.865 16.443 16.443 0 0 0-8.231-11.296l-73.549-40.367c-11.495-6.314-18.014-18.19-18.014-30.457 0-3.512.545-7.058 1.648-10.51-11.1 1.158-21.41 7.644-27.029 18.144a34.518 34.518 0 0 0-4.11 16.346c0 12.267 6.52 24.143 18.015 30.456l80.317 44.083 1.463 7.581a80.157 80.157 0 0 0 44.206 57.174v54.047c0 8.525 6.911 15.435 15.435 15.435h14.055v-83.751Z" fill="#CB8874"/><path d="M213.247 410.935a7.726 7.726 0 0 1-7.725-7.725v-67.906a7.726 7.726 0 0 1 15.45 0v67.906a7.726 7.726 0 0 1-7.725 7.725Z" fill="#EE6161"/><path d="M189.239 400.991a7.699 7.699 0 0 1-5.462-2.263 7.724 7.724 0 0 1 0-10.924l48.017-48.017a7.725 7.725 0 0 1 10.924 10.924l-48.017 48.017a7.701 7.701 0 0 1-5.462 2.263Z" fill="#EE6161"/><path d="M247.2 376.982h-67.906a7.725 7.725 0 1 1 0-15.45H247.2a7.726 7.726 0 0 1 0 15.45Z" fill="#EE6161"/><path d="M237.256 400.991a7.695 7.695 0 0 1-5.462-2.263l-48.017-48.017a7.725 7.725 0 0 1 10.924-10.924l48.017 48.017a7.725 7.725 0 0 1-5.462 13.187Z" fill="#EE6161"/><path d="M213.247 394.345c13.856 0 25.088-11.232 25.088-25.088 0-13.856-11.232-25.088-25.088-25.088-13.856 0-25.088 11.232-25.088 25.088 0 13.856 11.232 25.088 25.088 25.088Z" fill="#F37C7C"/><path d="M181.461 270.237c14.143-11.537 20.177-30.325 15.386-47.939L146.611 37.611a29.675 29.675 0 0 1-1.051-7.818c0-3.764.734-7.444 2.082-10.863a29.9 29.9 0 0 0-6.036 1.536c-11.907 4.398-19.425 15.696-19.425 27.86 0 2.586.34 5.212 1.05 7.818l58.235 214.09c-.003.002-.008.006-.005.003Z" fill="#CB8874"/><path d="M129.207 233.804a7.725 7.725 0 0 1-7.725-7.725V110.864a7.725 7.725 0 0 1 7.725-7.724 7.725 7.725 0 0 1 7.725 7.724v115.215a7.725 7.725 0 0 1-7.725 7.725Z" fill="#8EBAC5"/><path d="M88.473 216.931a7.698 7.698 0 0 1-5.462-2.263 7.724 7.724 0 0 1 0-10.924l81.47-81.47a7.724 7.724 0 0 1 10.923 10.924l-81.47 81.47a7.697 7.697 0 0 1-5.461 2.263Z" fill="#8EBAC5"/><path d="M186.815 176.197H71.6a7.725 7.725 0 0 1 0-15.45h115.215a7.726 7.726 0 0 1 0 15.45Z" fill="#8EBAC5"/><path d="M169.942 216.931a7.695 7.695 0 0 1-5.462-2.263l-81.47-81.47a7.724 7.724 0 1 1 10.924-10.924l81.469 81.47a7.724 7.724 0 0 1 0 10.924 7.693 7.693 0 0 1-5.461 2.263Z" fill="#8EBAC5"/><path d="M129.207 211.039c23.509 0 42.567-19.058 42.567-42.567s-19.058-42.567-42.567-42.567-42.566 19.058-42.566 42.567 19.057 42.567 42.566 42.567Z" fill="#A8D3D8"/><path d="M122.968 163.718h-4.703a7.725 7.725 0 1 1 0-15.449h4.703a7.725 7.725 0 1 1 0 15.449ZM141.599 185.665h-3.763a7.725 7.725 0 1 1 0-15.449h3.763a7.724 7.724 0 0 1 7.724 7.724 7.724 7.724 0 0 1-7.724 7.725Z" fill="#8EBAC5"/><path d="M403.354 437.331a7.726 7.726 0 0 1-7.725-7.725V311.429a7.726 7.726 0 0 1 15.45 0v118.177a7.726 7.726 0 0 1-7.725 7.725Z" fill="#6ED5A1"/><path d="M361.573 420.024a7.724 7.724 0 0 1-5.462-13.186l83.564-83.564a7.722 7.722 0 0 1 10.923 0 7.724 7.724 0 0 1 0 10.924l-83.563 83.564a7.706 7.706 0 0 1-5.462 2.262Z" fill="#6ED5A1"/><path d="M462.443 378.242H344.266a7.726 7.726 0 0 1 0-15.45h118.177a7.726 7.726 0 0 1 0 15.45Z" fill="#6ED5A1"/><path d="M445.137 420.024a7.699 7.699 0 0 1-5.462-2.262l-83.564-83.564a7.724 7.724 0 0 1 0-10.924 7.724 7.724 0 0 1 10.924 0l83.563 83.564a7.724 7.724 0 0 1-5.461 13.186Z" fill="#6ED5A1"/><path d="M403.354 414.178c24.113 0 43.661-19.547 43.661-43.66 0-24.114-19.548-43.661-43.661-43.661-24.113 0-43.66 19.547-43.66 43.661 0 24.113 19.547 43.66 43.66 43.66Z" fill="#B0E7C9"/><path d="M400.528 363.146h-4.83a7.725 7.725 0 0 1-7.724-7.725 7.725 7.725 0 0 1 7.724-7.725h4.83a7.726 7.726 0 0 1 0 15.45ZM413.903 388.41h-4.458a7.725 7.725 0 1 1 0-15.45h4.458a7.726 7.726 0 0 1 0 15.45Z" fill="#6ED5A1"/><path d="M243.119 220.945c14.608 0 26.47-11.804 26.544-26.411l.886-177.608a29.71 29.71 0 0 1 1.077-7.815 29.576 29.576 0 0 1 4.111-8.82A28.63 28.63 0 0 0 271.681 0a28.464 28.464 0 0 0-20.197 8.363c-5.171 5.17-8.364 12.319-8.311 20.213l-.054 192.369ZM304.682 205.935c15.409 0 28.507-11.259 30.823-26.493l23.853-157a29.665 29.665 0 0 1 2.201-7.574c.232-.524.502-1.03.763-1.536a26.753 26.753 0 0 0-5.369-.55c-12.669 0-23.916 9.218-25.935 22.278l-26.336 170.875ZM369.646 205.935c15.351 0 28.816-10.24 32.917-25.032l31.95-115.246a31.538 31.538 0 0 1 1.014-2.993 24.666 24.666 0 0 0-5.053-.526c-10.619 0-20.651 6.86-23.885 17.87l-35.077 119.253-1.866 6.674Z" fill="#CB8874"/></g><defs><clipPath id="a"><path fill="#fff" d="M0 0h512v512H0z"/></clipPath></defs></svg>