<svg width="1920" height="1080" viewBox="0 0 1920 1080" fill="none" xmlns="http://www.w3.org/2000/svg">
<rect width="1920" height="1080" fill="white"/>
<path d="M-3.05176e-05 640L120.5 127L383 0L-3.05176e-05 640Z" fill="#3DB2FF" fill-opacity="0.2"/>
<path d="M1418 1080L156.5 959.5L0.00012207 697L1418 1080Z" fill="#3DB2FF" fill-opacity="0.2"/>
<path d="M1920 575L1802 974L1537 1080L1920 575Z" fill="#3DB2FF" fill-opacity="0.2"/>
<path d="M1920 304L1838 91L425 0L1920 304Z" fill="#3DB2FF" fill-opacity="0.2"/>
<path d="M410.5 110L1912 430L1463 1078L1418.5 595L410.5 110Z" fill="#EE9A38" fill-opacity="0.2"/>
<path d="M78 639.5L370.5 161L1353 627L1439.5 1076L78 639.5Z" fill="#EE9A38" fill-opacity="0.2"/>
<path d="M0 0H311L69.5 80.5L0 485V0Z" fill="#EE9A38" fill-opacity="0.2"/>
<path d="M1920 1080H1639L1857 989L1920 614V1080Z" fill="#EE9A38" fill-opacity="0.2"/>
<path d="M0 1080L0 766.5L90.5 993.5L1221.5 1080H0Z" fill="#EE9A38" fill-opacity="0.2"/>
<path d="M1919.5 0V241.5L1891 42.5L698 0L1919.5 0Z" fill="#EE9A38" fill-opacity="0.2"/>
</svg>
