<svg width="1920" height="1080" viewBox="0 0 1920 1080" fill="none" xmlns="http://www.w3.org/2000/svg">
<rect width="1920" height="1080" fill="white"/>
<path d="M606.504 301.62C746.539 734.568 336.503 436.5 301.504 576.62C266.506 716.74 -5.99378 529.74 19.0042 301.62C44.0022 73.5 37.5043 -53.5002 301.504 26.6202C565.504 106.741 575.822 206.759 606.504 301.62Z" fill="#EE9A38" fill-opacity="0.2"/>
<path d="M950.5 419.984C950.5 505.312 913.5 559 823 574.484C591.999 614.006 695.5 505.312 695.5 419.984C695.5 334.656 796.5 121.984 823 265.484C849.5 408.984 950.5 334.656 950.5 419.984Z" fill="#3DB2FF" fill-opacity="0.2"/>
<path d="M1169 466.5C1169 491.629 1106.5 419.5 1093 512C1079.5 604.5 1017 491.629 1017 466.5C1017 441.371 1051.03 421 1093 421C1134.97 421 1169 441.371 1169 466.5Z" fill="#3DB2FF" fill-opacity="0.2"/>
<path d="M1066.53 98.0684C1066.53 139.49 734.535 98.0684 703.535 253.568C672.535 409.068 583.533 139.49 583.533 98.0684C583.533 56.6471 560.033 -10.4316 825.033 23.0684C1090.03 56.5684 1066.53 56.6471 1066.53 98.0684Z" fill="#3DB2FF" fill-opacity="0.2"/>
<path d="M1781 742.5C1781 865.936 1584 1242 1424 966C1264 690 1067 865.936 1067 742.5C1067 619.064 1226.83 519 1424 519C1688 892.954 1781 619.064 1781 742.5Z" fill="#3DB2FF" fill-opacity="0.2"/>
<path d="M1858 138C1858 199.856 1623.5 -34.5 1646.5 250C1669.5 534.5 1435 199.856 1435 138C1435 76.1441 1529.69 26 1646.5 26C1763.31 26 1858 76.1441 1858 138Z" fill="#EE9A38" fill-opacity="0.2"/>
<path d="M179 821.5C295 821.5 145.197 1049 103.5 1049C61.8025 1049 28 947.145 28 821.5C28 695.855 61.8025 594 103.5 594C145.197 594 63 821.5 179 821.5Z" fill="#EE9A38" fill-opacity="0.2"/>
<path d="M779 742.5C779 806.289 708.933 858 622.5 858C536.067 858 466 806.289 466 742.5C454.655 651.33 561.115 458.043 726.5 648.5C812.932 648.5 779 678.711 779 742.5Z" fill="#3DB2FF" fill-opacity="0.2"/>
<path d="M402.5 715.962C402.5 747.995 367.354 773.962 324 773.962C280.646 773.962 245.5 747.995 245.5 715.962C245.5 683.93 272 709.962 324 657.962C376 605.962 402.5 683.93 402.5 715.962Z" fill="#3DB2FF" fill-opacity="0.2"/>
<path d="M831 880C831 896.568 819.359 910 805 910C790.641 910 779 896.568 779 880C779 863.431 805 908.5 805 850C805 791.5 831 863.431 831 880Z" fill="#3DB2FF" fill-opacity="0.2"/>
<path d="M1895 782.5C1895 804.315 1875.08 822 1850.5 822C1825.92 822 1806 804.315 1806 782.5C1806 760.685 1822.5 771.5 1850.5 743C1878.5 714.5 1895 760.685 1895 782.5Z" fill="#3DB2FF" fill-opacity="0.2"/>
<path d="M1424 378.5C1424 441.737 1269.82 523.5 1211 523.5C1152.18 523.5 1211 441.737 1211 378.5C1211 315.263 1235.5 204 1317.5 264C1399.5 324 1424 315.263 1424 378.5Z" fill="#EE9A38" fill-opacity="0.2"/>
<path d="M1885 608.499C1885 663.452 1866.19 708 1843 708C1819.8 708 1801 663.452 1801 608.499C1801 553.547 1830.5 351.5 1885 362C1939.5 372.5 1885 553.547 1885 608.499Z" fill="#3DB2FF" fill-opacity="0.2"/>
<path d="M1115.23 980.975C1115.23 1015.78 1059.66 1044 991.117 1044C922.569 1044 867 1015.78 867 980.975C867 946.167 1156.79 846 1225.34 846C1293.88 846 1115.23 946.167 1115.23 980.975Z" fill="#3DB2FF" fill-opacity="0.2"/>
<path d="M1036.9 774.5C1036.9 735.012 995.266 703 943.904 703C892.541 703 772.404 763 850.904 774.5C929.404 786 892.541 846 943.904 846C995.266 846 1036.9 813.988 1036.9 774.5Z" fill="#EE9A38" fill-opacity="0.2"/>
<ellipse rx="57.5" ry="100.5" transform="matrix(1 0 0 -1 306.5 948.5)" fill="#3DB2FF" fill-opacity="0.2"/>
<ellipse rx="173.5" ry="70.5" transform="matrix(1 0 0 -1 565.5 980.5)" fill="#EE9A38" fill-opacity="0.2"/>
<path d="M1229 225C1385.92 75.5 1137.38 166 1094.58 166C1051.78 166 902.08 194.778 902.08 260.5C902.08 326.222 1051.78 404 1094.58 404C1137.38 404 969.5 260.5 1229 225Z" fill="#EE9A38" fill-opacity="0.2"/>
<path d="M1382 71.0641C1382 51.458 1346.41 35.5641 1302.5 35.5641C1258.59 35.5641 1071.5 15.958 1071.5 35.5641C1071.5 55.1702 1258.59 106.564 1302.5 106.564C1346.41 106.564 1382 90.6702 1382 71.0641Z" fill="#EE9A38" fill-opacity="0.2"/>
<path d="M1401 183.5C1386 31.9999 1379.51 136 1353 136C1326.49 136 1305 157.266 1305 183.5C1305 209.733 1326.49 231 1353 231C1379.51 231 1416 335 1401 183.5Z" fill="#3DB2FF" fill-opacity="0.2"/>
<path d="M1877 271.5C1877 255.208 1862 312 1839 242C1816 172 1801 255.208 1801 271.5C1801 287.792 1818.01 301 1839 301C1859.99 301 1877 287.792 1877 271.5Z" fill="#3DB2FF" fill-opacity="0.2"/>
<path d="M1318 992.5C1318 959.639 1256.5 867 1264.5 933C1272.5 999 1211 959.639 1211 992.5C1211 1025.36 1234.95 1052 1264.5 1052C1294.05 1052 1318 1025.36 1318 992.5Z" fill="#EE9A38" fill-opacity="0.2"/>
<path d="M1740 640.5C1740 629.731 1577.91 530 1534 530C1490.09 530 1513.5 580 1581 640.5C1648.5 701 1650.09 700 1694 700C1737.91 700 1740 651.27 1740 640.5Z" fill="#EE9A38" fill-opacity="0.2"/>
<path d="M1103 613.5C1189.5 555 1029.8 594 939.5 594C849.201 594 776 602.73 776 613.5C776 624.269 849.201 633 939.5 633C1029.8 633 1016.5 672 1103 613.5Z" fill="#EE9A38" fill-opacity="0.2"/>
<path d="M1858.22 962C1858.22 913.951 1841.21 875 1820.22 875C1799.23 875 1841.72 962 1782.22 962C1722.72 962 1799.23 1049 1820.22 1049C1841.21 1049 1858.22 1010.05 1858.22 962Z" fill="#EE9A38" fill-opacity="0.2"/>
<path d="M1514.5 338.5C1514.5 325.797 1501.29 315.5 1485 315.5C1468.71 315.5 1455.5 325.797 1455.5 338.5C1455.5 351.202 1468.71 361.5 1485 361.5C1690 486.5 1514.5 351.202 1514.5 338.5Z" fill="#3DB2FF" fill-opacity="0.2"/>
<path d="M1801 452C1801 420.52 1693.5 316 1647 395C1600.5 474 1493 420.52 1493 452C1493 483.48 1561.95 509 1647 509C1732.05 509 1801 483.48 1801 452Z" fill="#EE9A38" fill-opacity="0.2"/>
</svg>
