<svg width="75" height="75" viewBox="0 0 75 75" fill="none" xmlns="http://www.w3.org/2000/svg">
<path d="M75 8.87885C72.2109 10.3846 69.2391 11.3827 66.1406 11.8673C69.3281 9.525 71.7609 5.84423 72.9047 1.40769C69.9328 3.58846 66.6516 5.12885 63.1547 5.98846C60.3328 2.29039 56.3109 0 51.9234 0C43.4109 0 36.5578 8.50385 36.5578 18.9288C36.5578 20.4288 36.6609 21.8712 36.9141 23.2442C24.1313 22.4769 12.8203 14.9365 5.22187 3.45C3.89531 6.28269 3.11719 9.525 3.11719 13.0154C3.11719 19.5692 5.85938 25.3788 9.94687 28.7423C7.47656 28.6846 5.05312 27.8019 3 26.4115C3 26.4692 3 26.5442 3 26.6192C3 35.8154 8.32969 43.4538 15.3187 45.2135C14.0672 45.6346 12.7031 45.8365 11.2875 45.8365C10.3031 45.8365 9.30937 45.7673 8.37656 45.5135C10.3687 53.0077 16.0219 58.5173 22.7438 58.6962C17.5125 63.7327 10.8703 66.7673 3.67969 66.7673C2.41875 66.7673 1.20937 66.6981 0 66.5077C6.81094 71.9135 14.8828 75 23.5875 75C51.8812 75 67.35 46.1538 67.35 21.15C67.35 20.3135 67.3266 19.5058 67.2937 18.7038C70.3453 16.0385 72.9094 12.7096 75 8.87885Z" fill="#FFEDDA"/>
</svg>
